<svg xmlns="http://www.w3.org/2000/svg" xmlns:xlink="http://www.w3.org/1999/xlink" width="76" height="87" viewBox="0 0 76 87">
    <defs>
        <path id="a" d="M0 .104h75.72V87H0z"/>
    </defs>
    <g fill="none" fill-rule="evenodd">
        <g>
            <mask id="b" fill="#fff">
                <use xlink:href="#a"/>
            </mask>
            <path fill="#FFF" d="M56.708 16.261c-4.42-2.762-8.59-3.851-12.76-6.613-2.585-1.758-6.171-5.944-9.174-9.544-.584 5.777-2.334 8.121-4.336 9.795-4.253 3.348-6.921 4.353-10.591 6.362C16.762 17.852 0 27.898 0 49.496S18.096 87 38.194 87C58.292 87 75.72 72.35 75.72 50.165c0-22.184-16.345-32.23-19.013-33.904" mask="url(#b)"/>
        </g>
        <path fill="#FEFEFE" d="M15.11 78.39S9.57 72.493 9.13 68.082c-.442-4.412.318-4.076 1.155-4.076.838 0 28.754 15.89 42.01 15.456C59.59 79.223 61 79.18 61 79.18S55.386 86 36.875 86c-12.019 0-21.766-7.61-21.766-7.61"/>
        <path fill="#0E3650" d="M9.38 63C8.784 63 8 63.349 8 64.653c0 3.006.814 5.419 2.298 7.912l.872 2.889 1.368-.56c-3.546-3.898-4.482-10.128-2.71-10.488 1.668-.187 15.525 8.433 21.561 10.748C43.944 79.97 51.352 80 58.106 80c.608-.39 2.166.125 2.737-.273 1.613-1.122 1.979-3.072 2.157-3.284-3.086 2.391-5.603 2.391-10.032 2.391-8.013 0-18.57-3.406-26.095-7.51C18.993 67.025 11.551 63 9.38 63"/>
        <path fill="#0E3650" d="M66.562 25.287c.245.71-4.197-5.389-4.434-4.11 5.743 7.578-6.401 25.8-21.754 31.259C24.889 57.943.062 56.421.154 46.728c0 0-.412 4.586.111 6.246 1.047 3.837 8.052 7.031 15.556 7.731C17.28 63.62 21.8 71.002 30.273 71c1.129 0 2.327-.131 3.598-.422 10.984-2.507 13.16-11.634 13.57-15.918 15.202-7.451 21.331-22.4 19.121-29.373"/>
        <path fill="#FEFEFE" d="M73 47c-1.086 2.096-2.324 3.727-3.576 5.237-.261-.166-.777-.625-1.917-4.859.449 2.14.354 6.153-.622 8.042-4.01 3.537-6.837 4.228-10.11 4.746-.52.082-1.65.012-2.775-.619C55.375 62.751 56.637 64 62.45 64c2.359 0 3.6-1.813 5.374-3.6.636-.108 1.017-.457 1.133-1.284C71.164 56.31 72.297 53.086 73 47"/>
        <path fill="#0E3650" d="M50.857 67c1.061 0 1.837.53 2.851 1.118C54.93 68.825 56 69.46 56 69.992c0 .216-.13.632-.628.632-.891 0-1.934-1.848-4.345-1.848-2.067 0-3.631 2.224-5.378 2.224-.394 0-.649-.31-.649-.603 0-.887 1.046-1.018 2.685-2.1 1.06-.701 1.95-1.297 3.172-1.297M10 68c6.937 7.565 12.13 10.571 19.852 12.757 7.645 2.165 13.785 2.024 25.148-.408-8.55 2.511-16.177 3.81-25.415 1.29C20.717 79.218 15.048 74.854 10 68"/>
        <path fill="#0E3650" d="M14.742 68L14 72.762 15 76zM25 75l-1 4.897.374 2.103.36-1.771zM39 79l-.953 4.034L36 85l.596-2.072zM49 81l-.584 2.128L47 85l.636-1.877zM53 58.332c3.459 0 8.985-2.144 12.003-4.442C67.45 52.028 68.771 50.808 72 47c-2.226 3.961-5.496 8.367-9.452 10.705C59.398 59.567 57.67 60 56.028 60c-.46 0-2.155-.29-2.49-.708a3.812 3.812 0 0 1-.538-.96"/>
        <path fill="#0E3650" d="M53 59.72c.768 3.524 3.091 6.28 6.688 6.28 4.737 0 8.074-3.267 9.617-6.348C70.724 56.82 71.105 55.841 72 51c-1.03 4.645-2.18 7.466-4.288 9.635-1.942 1.996-4.377 3.87-7.774 3.87-3.108 0-5.483-1.32-6.272-4.06-.084-.291-.51-.454-.666-.725"/>
        <path fill="#FEFEFE" d="M69 53.085c-.686-1.282-1.23-2.525-1.934-5.085.67 5.165-.388 7.73-1.066 8.368l1.49 4.35s.282.689.757 2.282c0-1.866.012-2.993.611-3.837L69 53.085z"/>
    </g>
</svg>
