<svg height="84" viewBox="0 0 84 84" width="84" xmlns="http://www.w3.org/2000/svg"><g fill="none" transform="translate(15 3)"><path d="m54.3 50.7c-.1-5.6-1.7-10-4.2-13.9l-4.9 2.2z" fill="#cea844"/><path d="m38.2 62.6 12-3.4 3.1-.9c.7-2.3 1-4.8 1-7.3 0-.1 0-.2 0-.3l-9.1-11.8-7.4 23.5z" fill="#a2c7bd"/><path d="m38.1 62.8.1-.2z" fill="#a2c7bd"/><path d="m37.9 62.4 7.4-23.5-29.9 13.5z" fill="#f8d22b"/><path d="m15.4 52.4 10.1 13 12.7-2.8-.3-.2z" fill="#249ea2"/><path d="m25.5 65.4-12.7 2.8 6.7 8.6c2.5.7 5.1 1.1 7.8 1.1 1.8 0 3.6-.2 5.3-.5l5.6-14.6.1-.3z" fill="#e7d990"/><path d="m38.2 62.6-.1.3-5.6 14.6c4.7-.9 9-3.1 12.5-6.1z" fill="#e26c78"/><path d="m49.1 59.5 1.1-.3-12 3.4 6.8 8.8c1.4-1.2 2.7-2.6 3.8-4.1z" fill="#65a8ac"/><path d="m49.1 59.5-.3 7.7c2-2.6 3.6-5.7 4.5-9l-3.1.9z" fill="#246068"/><path d="m50.2 36.8c-2.1-3.3-4.8-6.2-7.5-9l2.6 11.2z" fill="#5fb2ac"/><path d="m15.4 52.4 29.8-13.5-2.6-11.2c-.1-.1-.2-.2-.2-.2l-11.1 10.3z" fill="#e26c78"/><path d="m12.8 68.3 12.8-2.8-10-13-9.4 15.6c.3.5.8.9 1.2 1.3z" fill="#e6d2c8"/><path d="m.1 53.7c.6 5.4 2.7 10.4 6 14.4l9.3-15.7z" fill="#2e686f"/><path d="m31.3 37.8 11.1-10.3c-.1-.1-.2-.2-.3-.3l-22.8-7.5c-.3.3-.5.6-.8.9z" fill="#d8b757"/><path d="m12.8 68.3-5.4 1.2c3.2 3.4 7.4 6.1 12 7.4z" fill="#2cb5b0"/><path d="m16.2 38.8-.7 13.6 15.8-14.7-12.8-17c-.4.5-.9 1-1.4 1.5l-.8 14.2z" fill="#f2806d"/><path d="m29.8 11.9-8.1 4.6c-.8 1.1-1.6 2.2-2.5 3.2l22.8 7.5c-4.5-4.7-9.3-9.2-12.2-15.3z" fill="#e6d4c4"/><path d="m16.2 38.8-14.5 2.8c-.6 1.4-1 2.9-1.3 4.5l15 6.2z" fill="#29abab"/><path d="m.4 46.2c-.2 1.5-.4 3.1-.4 4.8 0 .9 0 1.9.1 2.8l15.3-1.3z" fill="#fa8777"/><path d="m16.2 38.8.1-2.4-9.1-3.8c-2.3 2.7-4.2 5.6-5.5 9z" fill="#b6cec5"/><path d="m16.3 36.4.8-14.2c-3.3 3.5-6.8 6.8-9.9 10.5z" fill="#d395a0"/><path d="m27.2 0c0 6.8-2.2 12-5.4 16.5l8.1-4.6c-1.7-3.4-2.7-7.3-2.7-11.9z" fill="#a86264"/></g></svg>
