<svg xmlns="http://www.w3.org/2000/svg" width="1402" height="481" viewBox="0 0 1402 481">
    <g fill="none" fill-rule="nonzero">
        <path fill="#D0D0D0" d="M216 430h262v20H216z"/>
        <path fill="#97D217" d="M352 295h38v38h-38z"/>
        <path fill="#D0D0D0" d="M300 196l29.207 78H475v-78z"/>
        <path fill="#6D6D6D" d="M342 206h97v10h-97z"/>
        <path fill="#7EC9DA" d="M400 361h38v38h-38z"/>
        <path fill="#428440" d="M255 295h38v38h-38zM51 410h38v38H51z"/>
        <path fill="#333" d="M89.556 452H50.444c-1.466 0-2.444-.978-2.444-2.444v-39.112c0-1.466.978-2.444 2.444-2.444h39.112c1.466 0 2.444.978 2.444 2.444v39.112c0 1.466-.978 2.444-2.444 2.444zm-36.667-4.889H87.11V412.89H52.89v34.222z"/>
        <path fill="#7EC9DA" d="M400 295h38v38h-38z"/>
        <path fill="#B5B5B5" d="M255 361h38v38h-38z"/>
        <path fill="#97D217" d="M303 361h38v38h-38z"/>
        <path fill="#4C4C4C" d="M216 130h262v10H216z"/>
        <path fill="#6D6D6D" d="M410 255h28v10h-28zM216 196v78h117l-29.25-78z"/>
        <circle cx="274" cy="235" r="19" fill="#97D217"/>
        <path fill="#7EC9DA" d="M1360 427c0-3.733-3.033-7-7-7h-14c-3.967 0-7 3.267-7 7v14c0 3.733 3.033 7 7 7h14c3.967 0 7-3.267 7-7v-14z"/>
        <path fill="#4C4C4C" d="M526.446 245.871h145.135v9.714H526.446z"/>
        <path fill="#6D6D6D" d="M526.446 255.586h145.135v194.286H526.446z"/>
        <path fill="#333" d="M565.149 394.014h-19.352c-1.451 0-2.419-.971-2.419-2.428 0-1.457.968-2.429 2.42-2.429h19.35c1.452 0 2.42.972 2.42 2.429 0 1.457-.968 2.428-2.42 2.428z"/>
        <path fill="#7EC9DA" d="M584.5 394.014h-9.676c-1.451 0-2.419-.971-2.419-2.428 0-1.457.968-2.429 2.42-2.429h9.675c1.451 0 2.419.972 2.419 2.429 0 1.457-.968 2.428-2.419 2.428z"/>
        <path fill="#333" d="M613.527 394.014h-19.351c-1.452 0-2.42-.971-2.42-2.428 0-1.457.968-2.429 2.42-2.429h19.351c1.451 0 2.419.972 2.419 2.429 0 1.457-.968 2.428-2.419 2.428z"/>
        <path fill="#97D217" d="M632.878 394.014h-9.675c-1.452 0-2.42-.971-2.42-2.428 0-1.457.968-2.429 2.42-2.429h9.675c1.452 0 2.42.972 2.42 2.429 0 1.457-.968 2.428-2.42 2.428z"/>
        <path fill="#333" d="M642.554 403.729h-19.351c-1.452 0-2.42-.972-2.42-2.429 0-1.457.968-2.429 2.42-2.429h19.351c1.451 0 2.419.972 2.419 2.429 0 1.457-.968 2.429-2.419 2.429zM565.149 355.157h-19.352c-1.451 0-2.419-.971-2.419-2.428 0-1.458.968-2.429 2.42-2.429h19.35c1.452 0 2.42.971 2.42 2.429 0 1.457-.968 2.428-2.42 2.428zM584.5 355.157h-9.676c-1.451 0-2.419-.971-2.419-2.428 0-1.458.968-2.429 2.42-2.429h9.675c1.451 0 2.419.971 2.419 2.429 0 1.457-.968 2.428-2.419 2.428zM613.527 355.157h-19.351c-1.452 0-2.42-.971-2.42-2.428 0-1.458.968-2.429 2.42-2.429h19.351c1.451 0 2.419.971 2.419 2.429 0 1.457-.968 2.428-2.419 2.428z"/>
        <path fill="#FFF" d="M632.878 355.157h-9.675c-1.452 0-2.42-.971-2.42-2.428 0-1.458.968-2.429 2.42-2.429h9.675c1.452 0 2.42.971 2.42 2.429 0 1.457-.968 2.428-2.42 2.428z"/>
        <path fill="#333" d="M642.554 364.871h-87.323c-1.451 0-2.419-.971-2.419-2.428 0-1.457.968-2.429 2.42-2.429h87.322c1.451 0 2.419.972 2.419 2.429 0 1.457-.968 2.428-2.419 2.428z"/>
        <path fill="#97D217" d="M584.5 374.586h-19.351c-1.452 0-2.42-.972-2.42-2.429 0-1.457.968-2.428 2.42-2.428H584.5c1.451 0 2.419.971 2.419 2.428 0 1.457-.968 2.429-2.419 2.429z"/>
        <path fill="#333" d="M603.851 374.586h-9.675c-1.452 0-2.42-.972-2.42-2.429 0-1.457.968-2.428 2.42-2.428h9.675c1.452 0 2.42.971 2.42 2.428 0 1.457-.968 2.429-2.42 2.429zM632.878 374.586h-19.351c-1.451 0-2.419-.972-2.419-2.429 0-1.457.968-2.428 2.419-2.428h19.351c1.452 0 2.42.971 2.42 2.428 0 1.457-.968 2.429-2.42 2.429z"/>
        <path fill="#7EC9DA" d="M652.23 374.586h-9.676c-1.451 0-2.419-.972-2.419-2.429 0-1.457.968-2.428 2.42-2.428h9.675c1.451 0 2.419.971 2.419 2.428 0 1.457-.968 2.429-2.42 2.429zM565.149 316.3h-19.352c-1.451 0-2.419-.971-2.419-2.429 0-1.457.968-2.428 2.42-2.428h19.35c1.452 0 2.42.971 2.42 2.428 0 1.458-.968 2.429-2.42 2.429z"/>
        <path fill="#333" d="M584.5 316.3h-9.676c-1.451 0-2.419-.971-2.419-2.429 0-1.457.968-2.428 2.42-2.428h9.675c1.451 0 2.419.971 2.419 2.428 0 1.458-.968 2.429-2.419 2.429z"/>
        <path fill="#97D217" d="M613.527 316.3h-19.351c-1.452 0-2.42-.971-2.42-2.429 0-1.457.968-2.428 2.42-2.428h19.351c1.451 0 2.419.971 2.419 2.428 0 1.458-.968 2.429-2.419 2.429z"/>
        <path fill="#333" d="M632.878 316.3h-9.675c-1.452 0-2.42-.971-2.42-2.429 0-1.457.968-2.428 2.42-2.428h9.675c1.452 0 2.42.971 2.42 2.428 0 1.458-.968 2.429-2.42 2.429zM642.554 326.014h-87.323c-1.451 0-2.419-.971-2.419-2.428 0-1.457.968-2.429 2.42-2.429h87.322c1.451 0 2.419.972 2.419 2.429 0 1.457-.968 2.428-2.419 2.428z"/>
        <path fill="#FFF" d="M584.5 335.729h-19.351c-1.452 0-2.42-.972-2.42-2.429 0-1.457.968-2.429 2.42-2.429H584.5c1.451 0 2.419.972 2.419 2.429 0 1.457-.968 2.429-2.419 2.429z"/>
        <path fill="#333" d="M603.851 335.729h-9.675c-1.452 0-2.42-.972-2.42-2.429 0-1.457.968-2.429 2.42-2.429h9.675c1.452 0 2.42.972 2.42 2.429 0 1.457-.968 2.429-2.42 2.429z"/>
        <path fill="#7EC9DA" d="M632.878 335.729h-19.351c-1.451 0-2.419-.972-2.419-2.429 0-1.457.968-2.429 2.419-2.429h19.351c1.452 0 2.42.972 2.42 2.429 0 1.457-.968 2.429-2.42 2.429z"/>
        <path fill="#FFF" d="M652.23 335.729h-9.676c-1.451 0-2.419-.972-2.419-2.429 0-1.457.968-2.429 2.42-2.429h9.675c1.451 0 2.419.972 2.419 2.429 0 1.457-.968 2.429-2.42 2.429z"/>
        <path fill="#333" d="M565.149 277.443h-19.352c-1.451 0-2.419-.972-2.419-2.429 0-1.457.968-2.428 2.42-2.428h19.35c1.452 0 2.42.971 2.42 2.428 0 1.457-.968 2.429-2.42 2.429z"/>
        <path fill="#FFF" d="M584.5 277.443h-9.676c-1.451 0-2.419-.972-2.419-2.429 0-1.457.968-2.428 2.42-2.428h9.675c1.451 0 2.419.971 2.419 2.428 0 1.457-.968 2.429-2.419 2.429z"/>
        <path fill="#333" d="M613.527 277.443h-19.351c-1.452 0-2.42-.972-2.42-2.429 0-1.457.968-2.428 2.42-2.428h19.351c1.451 0 2.419.971 2.419 2.428 0 1.457-.968 2.429-2.419 2.429z"/>
        <path fill="#97D217" d="M632.878 277.443h-9.675c-1.452 0-2.42-.972-2.42-2.429 0-1.457.968-2.428 2.42-2.428h9.675c1.452 0 2.42.971 2.42 2.428 0 1.457-.968 2.429-2.42 2.429z"/>
        <path fill="#333" d="M642.554 287.157h-87.323c-1.451 0-2.419-.971-2.419-2.428 0-1.458.968-2.429 2.42-2.429h87.322c1.451 0 2.419.971 2.419 2.429 0 1.457-.968 2.428-2.419 2.428zM584.5 296.871h-19.351c-1.452 0-2.42-.971-2.42-2.428 0-1.457.968-2.429 2.42-2.429H584.5c1.451 0 2.419.972 2.419 2.429 0 1.457-.968 2.428-2.419 2.428z"/>
        <path fill="#FFF" d="M603.851 296.871h-9.675c-1.452 0-2.42-.971-2.42-2.428 0-1.457.968-2.429 2.42-2.429h9.675c1.452 0 2.42.972 2.42 2.429 0 1.457-.968 2.428-2.42 2.428z"/>
        <path fill="#333" d="M632.878 296.871h-19.351c-1.451 0-2.419-.971-2.419-2.428 0-1.457.968-2.429 2.419-2.429h19.351c1.452 0 2.42.972 2.42 2.429 0 1.457-.968 2.428-2.42 2.428zM652.23 296.871h-9.676c-1.451 0-2.419-.971-2.419-2.428 0-1.457.968-2.429 2.42-2.429h9.675c1.451 0 2.419.972 2.419 2.429 0 1.457-.968 2.428-2.42 2.428z"/>
        <g fill="#333">
            <path d="M497.419 452.3c-1.451 0-2.419-.971-2.419-2.429V236.157c0-1.457.968-2.428 2.419-2.428s2.419.971 2.419 2.428v213.714c0 1.458-.968 2.429-2.42 2.429zM516.77 452.3c-1.451 0-2.419-.971-2.419-2.429V236.157c0-1.457.968-2.428 2.42-2.428 1.45 0 2.418.971 2.418 2.428v213.714c0 1.458-.967 2.429-2.419 2.429z"/>
            <path d="M497.419 452.3c-.726 0-1.21-.243-1.693-.729-.968-.971-.968-2.428 0-3.4l19.351-19.428c.968-.972 2.419-.972 3.387 0 .967.971.967 2.428 0 3.4l-19.352 19.428c-.484.486-.967.729-1.693.729z"/>
            <path d="M516.77 452.3H497.42c-1.451 0-2.419-.971-2.419-2.429 0-1.457.968-2.428 2.419-2.428h19.351c1.452 0 2.42.971 2.42 2.428 0 1.458-.968 2.429-2.42 2.429zM497.419 432.871c-.726 0-1.21-.242-1.693-.728-.968-.972-.968-2.429 0-3.4l19.351-19.429c.968-.971 2.419-.971 3.387 0 .967.972.967 2.429 0 3.4l-19.352 19.429c-.484.486-.967.728-1.693.728z"/>
            <path d="M516.77 432.871H497.42c-1.451 0-2.419-.971-2.419-2.428 0-1.457.968-2.429 2.419-2.429h19.351c1.452 0 2.42.972 2.42 2.429 0 1.457-.968 2.428-2.42 2.428zM497.419 413.443c-.726 0-1.21-.243-1.693-.729-.968-.971-.968-2.428 0-3.4l19.351-19.428c.968-.972 2.419-.972 3.387 0 .967.971.967 2.428 0 3.4l-19.352 19.428c-.484.486-.967.729-1.693.729z"/>
            <path d="M516.77 413.443H497.42c-1.451 0-2.419-.972-2.419-2.429 0-1.457.968-2.428 2.419-2.428h19.351c1.452 0 2.42.971 2.42 2.428 0 1.457-.968 2.429-2.42 2.429zM497.419 394.014c-.726 0-1.21-.243-1.693-.728-.968-.972-.968-2.429 0-3.4l19.351-19.429c.968-.971 2.419-.971 3.387 0 .967.972.967 2.429 0 3.4l-19.352 19.429c-.484.485-.967.728-1.693.728z"/>
            <path d="M516.77 394.014H497.42c-1.451 0-2.419-.971-2.419-2.428 0-1.457.968-2.429 2.419-2.429h19.351c1.452 0 2.42.972 2.42 2.429 0 1.457-.968 2.428-2.42 2.428zM497.419 374.586c-.726 0-1.21-.243-1.693-.729-.968-.971-.968-2.428 0-3.4l19.351-19.428c.968-.972 2.419-.972 3.387 0 .967.971.967 2.428 0 3.4l-19.352 19.428c-.484.486-.967.729-1.693.729z"/>
            <path d="M516.77 374.586H497.42c-1.451 0-2.419-.972-2.419-2.429 0-1.457.968-2.428 2.419-2.428h19.351c1.452 0 2.42.971 2.42 2.428 0 1.457-.968 2.429-2.42 2.429zM497.419 355.157c-.726 0-1.21-.243-1.693-.728-.968-.972-.968-2.429 0-3.4l19.351-19.429c.968-.971 2.419-.971 3.387 0 .967.971.967 2.429 0 3.4l-19.352 19.429c-.484.485-.967.728-1.693.728z"/>
            <path d="M516.77 355.157H497.42c-1.451 0-2.419-.971-2.419-2.428 0-1.458.968-2.429 2.419-2.429h19.351c1.452 0 2.42.971 2.42 2.429 0 1.457-.968 2.428-2.42 2.428z"/>
            <g>
                <path d="M497.419 335.729c-.726 0-1.21-.243-1.693-.729-.968-.971-.968-2.429 0-3.4l19.351-19.429c.968-.971 2.419-.971 3.387 0 .967.972.967 2.429 0 3.4L499.112 335c-.484.486-.967.729-1.693.729z"/>
                <path d="M516.77 335.729H497.42c-1.451 0-2.419-.972-2.419-2.429 0-1.457.968-2.429 2.419-2.429h19.351c1.452 0 2.42.972 2.42 2.429 0 1.457-.968 2.429-2.42 2.429z"/>
            </g>
            <g>
                <path d="M497.419 316.3c-.726 0-1.21-.243-1.693-.729-.968-.971-.968-2.428 0-3.4l19.351-19.428c.968-.972 2.419-.972 3.387 0 .967.971.967 2.428 0 3.4l-19.352 19.428c-.484.486-.967.729-1.693.729z"/>
                <path d="M516.77 316.3H497.42c-1.451 0-2.419-.971-2.419-2.429 0-1.457.968-2.428 2.419-2.428h19.351c1.452 0 2.42.971 2.42 2.428 0 1.458-.968 2.429-2.42 2.429z"/>
            </g>
            <g>
                <path d="M497.419 296.871c-.726 0-1.21-.242-1.693-.728-.968-.972-.968-2.429 0-3.4l19.351-19.429c.968-.971 2.419-.971 3.387 0 .967.972.967 2.429 0 3.4l-19.352 19.429c-.484.486-.967.728-1.693.728z"/>
                <path d="M516.77 296.871H497.42c-1.451 0-2.419-.971-2.419-2.428 0-1.457.968-2.429 2.419-2.429h19.351c1.452 0 2.42.972 2.42 2.429 0 1.457-.968 2.428-2.42 2.428z"/>
            </g>
            <g>
                <path d="M497.419 277.443c-.726 0-1.21-.243-1.693-.729-.968-.971-.968-2.428 0-3.4l19.351-19.428c.968-.972 2.419-.972 3.387 0 .967.971.967 2.428 0 3.4l-19.352 19.428c-.484.486-.967.729-1.693.729z"/>
                <path d="M516.77 277.443H497.42c-1.451 0-2.419-.972-2.419-2.429 0-1.457.968-2.428 2.419-2.428h19.351c1.452 0 2.42.971 2.42 2.428 0 1.457-.968 2.429-2.42 2.429z"/>
            </g>
            <g>
                <path d="M497.419 258.014c-.726 0-1.21-.243-1.693-.728-.968-.972-.968-2.429 0-3.4l19.351-19.429c.968-.971 2.419-.971 3.387 0 .967.972.967 2.429 0 3.4l-19.352 19.429c-.484.485-.967.728-1.693.728z"/>
                <path d="M516.77 258.014H497.42c-1.451 0-2.419-.971-2.419-2.428 0-1.457.968-2.429 2.419-2.429h19.351c1.452 0 2.42.972 2.42 2.429 0 1.457-.968 2.428-2.42 2.428z"/>
            </g>
        </g>
        <path fill="#333" d="M671.581 452.3H526.446c-1.451 0-2.419-.971-2.419-2.429v-204c0-1.457.968-2.428 2.419-2.428H671.58c1.451 0 2.419.971 2.419 2.428v204c0 1.458-.968 2.429-2.419 2.429zm-142.716-4.857h140.297V248.3H528.865v199.143z"/>
        <path fill="#7EC9DA" d="M556.682 385.757c16.691 8.743 22.98 29.143 14.272 45.9-8.708 16.757-29.027 23.072-45.718 14.329-16.69-8.743-22.98-29.143-14.271-45.9 8.708-16.515 29.027-23.072 45.717-14.329z"/>
        <g transform="translate(572.405 398.143)">
            <ellipse cx="26.608" cy="27.443" fill="#FFF" rx="24.189" ry="24.286"/>
            <path fill="#333" d="M26.608 54.157C11.853 54.157 0 42.257 0 27.443 0 12.629 11.853.729 26.608.729c14.756 0 26.608 11.9 26.608 26.714 0 14.814-11.852 26.714-26.608 26.714zm0-48.571c-12.094 0-21.77 9.714-21.77 21.857 0 12.143 9.676 21.857 21.77 21.857 12.095 0 21.77-9.714 21.77-21.857 0-12.143-9.675-21.857-21.77-21.857z"/>
        </g>
        <path fill="#333" d="M594.176 432.871c-.484 0-.968-.242-1.21-.242-.725-.486-1.21-1.215-1.21-2.186v-9.714c0-.729.485-1.7 1.21-2.186a2.19 2.19 0 0 1 2.42 0l9.675 4.857c.725.486 1.451 1.214 1.451 2.186 0 .971-.484 1.7-1.451 2.185l-9.676 4.858c-.484.242-.726.242-1.21.242zm2.419-8.014v1.943l1.935-.971-1.935-.972zM540.96 452.3a36.124 36.124 0 0 1-16.691-4.129c-8.466-4.614-14.997-12.142-17.9-21.371-2.903-9.229-1.935-19.186 2.419-27.686 6.289-12.143 18.626-19.428 32.171-19.428 5.806 0 11.611 1.457 16.691 4.128 17.658 9.229 24.673 31.329 15.24 49.057-6.048 12.143-18.385 19.429-31.93 19.429zm0-68c-11.853 0-22.496 6.557-27.818 17-3.87 7.529-4.596 16.029-2.177 24.043s7.982 14.571 15.48 18.457c4.597 2.429 9.435 3.643 14.514 3.643 11.853 0 22.496-6.557 27.818-17 7.982-15.543 2.177-34.486-13.304-42.5-4.596-2.429-9.434-3.643-14.514-3.643z"/>
        <path fill="#333" d="M524.753 418.057c-.484 0-.726 0-1.21-.243-1.21-.728-1.693-2.185-.967-3.157l8.95-17.243c.725-1.214 2.177-1.7 3.144-.971 1.21.728 1.694 2.186.968 3.157l-8.95 17.243c-.242.728-.968 1.214-1.935 1.214z"/>
        <path fill="#333" d="M555.231 412.229c-.484 0-.726 0-1.21-.243l-21.528-11.172c-1.21-.728-1.693-2.185-.967-3.157.725-1.214 2.177-1.7 3.386-.971l21.529 11.171c1.209.729 1.693 2.186.967 3.157-.484.729-1.451 1.215-2.177 1.215zM546.281 429.229c-.484 0-.726 0-1.21-.243l-21.528-11.172c-1.21-.728-1.693-2.185-.967-3.157.725-1.214 2.177-1.7 3.144-.971l21.529 11.171c1.21.729 1.693 2.186.967 3.157-.242.729-1.21 1.215-1.935 1.215z"/>
        <path fill="#FFF" d="M546.281 426.8c2.419 1.214 3.387 4.129 1.935 6.557-1.21 2.429-4.112 3.4-6.53 1.943-2.42-1.214-3.387-4.129-1.936-6.557 1.21-2.186 4.112-3.157 6.531-1.943z"/>
        <path fill="#333" d="M543.862 438.457c-1.21 0-2.419-.243-3.386-.728-3.629-1.943-4.838-6.315-3.145-9.715 1.21-2.428 3.628-3.885 6.531-3.885 1.21 0 2.42.242 3.387.728 1.693.972 2.902 2.429 3.628 4.372.484 1.942.484 3.885-.484 5.585-1.21 2.186-3.87 3.643-6.53 3.643zm0-9.714c-.967 0-1.693.486-2.177 1.214-.726 1.214-.242 2.672.968 3.157 1.21.729 2.66.243 3.144-.971.242-.486.242-1.214.242-1.943-.242-.729-.725-1.214-1.21-1.457-.241.243-.483 0-.967 0z"/>
        <path fill="#FFF" d="M555.231 409.8c2.419 1.214 3.387 4.129 1.935 6.557-1.21 2.429-4.112 3.4-6.53 1.943-2.42-1.214-3.387-4.129-1.936-6.557 1.21-2.429 4.112-3.4 6.531-1.943z"/>
        <path fill="#333" d="M552.812 421.214c-1.21 0-2.419-.243-3.386-.728-3.629-1.943-4.838-6.315-3.145-9.715 1.21-2.428 3.628-3.885 6.531-3.885 1.21 0 2.42.243 3.387.728 3.628 1.943 4.837 6.315 3.144 9.715-1.21 2.428-3.628 3.885-6.53 3.885zm0-9.714c-.967 0-1.693.486-2.177 1.214-.726 1.215-.242 2.672.968 3.157 1.21.729 2.66.243 3.386-.971s.242-2.671-.967-3.157c-.242 0-.726-.243-1.21-.243zM671.581 258.014H526.446c-1.451 0-2.419-.971-2.419-2.428 0-1.457.968-2.429 2.419-2.429H671.58c1.451 0 2.419.972 2.419 2.429 0 1.457-.968 2.428-2.419 2.428z"/>
        <path fill="#6D6D6D" d="M710 343h155v107H710z"/>
        <path fill="#4C4C4C" d="M710 333h155v10H710z"/>
        <circle cx="754" cy="385" r="24" fill="#7EC9DA"/>
        <g transform="translate(1002 110)">
            <path fill="#6D6D6D" d="M185 320.356c0 10.654-8.763 19.372-19.474 19.372H19.474C8.764 339.728 0 331.01 0 320.356V20.098C0 9.444 8.763.726 19.474.726h146.052C176.236.726 185 9.444 185 20.098v300.258z"/>
            <path fill="#FFF" d="M9.737 49.155h165.526v242.144H9.737z"/>
            <path fill="#50BA94" d="M9.737 39.469h165.526v9.686H9.737z"/>
            <path fill="#428440" d="M9.737 291.299h165.526v9.686H9.737z"/>
            <ellipse cx="92.5" cy="320.356" fill="#4C4C4C" rx="9.737" ry="9.686"/>
        </g>
        <path fill="#97D217" d="M1050 369.013c0-3.86-3.142-7.24-7.25-7.24h-14.5c-4.108 0-7.25 3.38-7.25 7.24v14.479c0 3.86 3.142 7.24 7.25 7.24h14.5c4.108 0 7.25-3.38 7.25-7.24v-14.479z"/>
        <path fill="#6D6D6D" d="M1050 175.963c0-3.86-3.142-7.24-7.25-7.24h-14.5c-4.108 0-7.25 3.38-7.25 7.24v14.479c0 3.861 3.142 7.24 7.25 7.24h14.5c4.108 0 7.25-3.379 7.25-7.24v-14.479z"/>
        <path fill="#7EC9DA" d="M1088.667 214.573c0-3.86-3.142-7.24-7.25-7.24h-14.5c-4.109 0-7.25 3.38-7.25 7.24v14.479c0 3.861 3.141 7.24 7.25 7.24h14.5c4.108 0 7.25-3.379 7.25-7.24v-14.479z"/>
        <path fill="#6D6D6D" d="M1050 291.793c0-3.86-3.142-7.24-7.25-7.24h-14.5c-4.108 0-7.25 3.38-7.25 7.24v14.479c0 3.86 3.142 7.24 7.25 7.24h14.5c4.108 0 7.25-3.38 7.25-7.24v-14.479z"/>
        <path fill="#97D217" d="M1127.333 253.183c0-3.86-3.141-7.24-7.25-7.24h-14.5c-4.108 0-7.25 3.38-7.25 7.24v14.479c0 3.861 3.142 7.24 7.25 7.24h14.5c4.109 0 7.25-3.379 7.25-7.24v-14.479z"/>
        <path fill="#428440" d="M1050 330.403c0-3.86-3.142-7.24-7.25-7.24h-14.5c-4.108 0-7.25 3.38-7.25 7.24v14.479c0 3.86 3.142 7.24 7.25 7.24h14.5c4.108 0 7.25-3.38 7.25-7.24v-14.479z"/>
        <path fill="#7EC9DA" d="M1088.667 369.013c0-3.86-3.142-7.24-7.25-7.24h-14.5c-4.109 0-7.25 3.38-7.25 7.24v14.479c0 3.86 3.141 7.24 7.25 7.24h14.5c4.108 0 7.25-3.38 7.25-7.24v-14.479z"/>
        <path fill="#6D6D6D" d="M1127.333 369.013c0-3.86-3.141-7.24-7.25-7.24h-14.5c-4.108 0-7.25 3.38-7.25 7.24v14.479c0 3.86 3.142 7.24 7.25 7.24h14.5c4.109 0 7.25-3.38 7.25-7.24v-14.479z"/>
        <path fill="#7EC9DA" d="M1166 291.793c0-3.86-3.142-7.24-7.25-7.24h-14.5c-4.108 0-7.25 3.38-7.25 7.24v14.479c0 3.86 3.142 7.24 7.25 7.24h14.5c4.108 0 7.25-3.38 7.25-7.24v-14.479z"/>
        <path fill="#97D217" d="M2.426 448.245h1397.149v29.952H2.426z"/>
        <path fill="#333" d="M1399.574 480.693H2.426c-1.456 0-2.426-.999-2.426-2.496v-29.952c0-1.498.97-2.496 2.426-2.496h1397.148c1.456 0 2.426.998 2.426 2.496v29.952c0 1.497-.97 2.496-2.426 2.496zM4.851 475.7H1397.15v-24.96H4.85v24.96z"/>
        <g fill="#333">
            <path d="M923.556 450.731c-.734 0-1.223-.241-1.712-.724l-39.11-38.636c-.978-.966-.978-2.414 0-3.38.977-.966 2.444-.966 3.422 0l39.11 38.635c.978.966.978 2.415 0 3.38-.488.484-.977.725-1.71.725zM923.556 412.096c-.734 0-1.223-.242-1.712-.725l-39.11-38.635c-.978-.966-.978-2.415 0-3.38.977-.967 2.444-.967 3.422 0l39.11 38.635c.978.966.978 2.414 0 3.38-.488.483-.977.725-1.71.725zM923.556 373.46c-.734 0-1.223-.241-1.712-.724l-39.11-38.636c-.978-.966-.978-2.414 0-3.38.977-.966 2.444-.966 3.422 0l39.11 38.635c.978.966.978 2.415 0 3.38-.488.484-.977.725-1.71.725zM923.556 334.825c-.734 0-1.223-.242-1.712-.725l-39.11-38.635c-.978-.966-.978-2.415 0-3.38.977-.967 2.444-.967 3.422 0l39.11 38.635c.978.966.978 2.414 0 3.38-.488.483-.977.725-1.71.725zM923.556 296.19c-.734 0-1.223-.242-1.712-.725l-39.11-38.636c-.978-.965-.978-2.414 0-3.38.977-.966 2.444-.966 3.422 0l39.11 38.635c.978.966.978 2.415 0 3.38-.488.484-.977.725-1.71.725z"/>
            <path d="M884.444 450.731c-.733 0-1.222-.241-1.71-.724-.978-.966-.978-2.415 0-3.38l39.11-38.636c.978-.966 2.445-.966 3.423 0 .977.966.977 2.414 0 3.38l-39.111 38.636c-.49.483-.978.724-1.712.724zM884.444 412.096c-.733 0-1.222-.242-1.71-.725-.978-.966-.978-2.414 0-3.38l39.11-38.636c.978-.966 2.445-.966 3.423 0 .977.966.977 2.415 0 3.38l-39.111 38.636c-.49.483-.978.725-1.712.725zM884.444 373.46c-.733 0-1.222-.241-1.71-.724-.978-.966-.978-2.415 0-3.38l39.11-38.636c.978-.966 2.445-.966 3.423 0 .977.966.977 2.414 0 3.38l-39.111 38.636c-.49.483-.978.724-1.712.724zM884.444 334.825c-.733 0-1.222-.242-1.71-.725-.978-.966-.978-2.414 0-3.38l39.11-38.636c.978-.966 2.445-.966 3.423 0 .977.966.977 2.415 0 3.38L886.156 334.1c-.49.483-.978.725-1.712.725zM884.444 296.19c-.733 0-1.222-.242-1.71-.725-.978-.966-.978-2.415 0-3.38l39.11-38.636c.978-.966 2.445-.966 3.423 0 .977.966.977 2.415 0 3.38l-39.111 38.636c-.49.483-.978.724-1.712.724z"/>
            <path d="M923.556 296.19h-39.112c-1.466 0-2.444-.967-2.444-2.415 0-1.45.978-2.415 2.444-2.415h39.112c1.466 0 2.444.966 2.444 2.415 0 1.448-.978 2.414-2.444 2.414zM923.556 334.825h-39.112c-1.466 0-2.444-.966-2.444-2.415s.978-2.415 2.444-2.415h39.112c1.466 0 2.444.966 2.444 2.415s-.978 2.415-2.444 2.415zM923.556 373.46h-39.112c-1.466 0-2.444-.966-2.444-2.415 0-1.448.978-2.414 2.444-2.414h39.112c1.466 0 2.444.966 2.444 2.414 0 1.45-.978 2.415-2.444 2.415zM923.556 412.096h-39.112c-1.466 0-2.444-.966-2.444-2.415s.978-2.415 2.444-2.415h39.112c1.466 0 2.444.966 2.444 2.415s-.978 2.415-2.444 2.415z"/>
            <path d="M923.556 450.731c-1.467 0-2.445-.966-2.445-2.415V255.14c0-1.449.978-2.415 2.445-2.415 1.466 0 2.444.966 2.444 2.415v193.177c0 1.45-.978 2.415-2.444 2.415zM884.444 450.731c-1.466 0-2.444-.966-2.444-2.415V255.14c0-1.449.978-2.415 2.444-2.415 1.467 0 2.445.966 2.445 2.415v193.177c0 1.45-.978 2.415-2.445 2.415z"/>
        </g>
        <g fill="#333">
            <path d="M1263.444 450.728c-.733 0-1.222-.243-1.71-.727-.978-.97-.978-2.425 0-3.394l39.11-38.788c.978-.97 2.445-.97 3.423 0 .977.97.977 2.424 0 3.394L1265.156 450c-.49.484-.978.727-1.712.727zM1263.444 411.94c-.733 0-1.222-.243-1.71-.727-.978-.97-.978-2.425 0-3.394l39.11-38.788c.978-.97 2.445-.97 3.423 0 .977.97.977 2.424 0 3.394l-39.111 38.788c-.49.484-.978.727-1.712.727zM1263.444 373.152c-.733 0-1.222-.243-1.71-.727-.978-.97-.978-2.425 0-3.394l39.11-38.788c.978-.97 2.445-.97 3.423 0 .977.97.977 2.424 0 3.394l-39.111 38.788c-.49.484-.978.727-1.712.727zM1263.444 334.364c-.733 0-1.222-.243-1.71-.727-.978-.97-.978-2.425 0-3.394l39.11-38.788c.978-.97 2.445-.97 3.423 0 .977.97.977 2.424 0 3.394l-39.111 38.788c-.49.484-.978.727-1.712.727z"/>
            <path d="M1302.556 450.728c-.734 0-1.223-.243-1.712-.727l-39.11-38.788c-.978-.97-.978-2.425 0-3.394.977-.97 2.444-.97 3.422 0l39.11 38.788c.978.97.978 2.424 0 3.394-.488.484-.977.727-1.71.727zM1302.556 411.94c-.734 0-1.223-.243-1.712-.727l-39.11-38.788c-.978-.97-.978-2.425 0-3.394.977-.97 2.444-.97 3.422 0l39.11 38.788c.978.97.978 2.424 0 3.394-.488.484-.977.727-1.71.727zM1302.556 373.152c-.734 0-1.223-.243-1.712-.727l-39.11-38.788c-.978-.97-.978-2.425 0-3.394.977-.97 2.444-.97 3.422 0l39.11 38.788c.978.97.978 2.424 0 3.394-.488.484-.977.727-1.71.727zM1302.556 334.364c-.734 0-1.223-.243-1.712-.727l-39.11-38.788c-.978-.97-.978-2.425 0-3.394.977-.97 2.444-.97 3.422 0l39.11 38.788c.978.97.978 2.424 0 3.394-.488.484-.977.727-1.71.727z"/>
            <path d="M1302.556 334.364h-39.112c-1.466 0-2.444-.97-2.444-2.424 0-1.455.978-2.425 2.444-2.425h39.112c1.466 0 2.444.97 2.444 2.425 0 1.454-.978 2.424-2.444 2.424zM1302.556 373.152h-39.112c-1.466 0-2.444-.97-2.444-2.424 0-1.455.978-2.425 2.444-2.425h39.112c1.466 0 2.444.97 2.444 2.425 0 1.454-.978 2.424-2.444 2.424zM1302.556 411.94h-39.112c-1.466 0-2.444-.97-2.444-2.424 0-1.455.978-2.425 2.444-2.425h39.112c1.466 0 2.444.97 2.444 2.425 0 1.454-.978 2.424-2.444 2.424z"/>
            <path d="M1263.444 450.728c-1.466 0-2.444-.97-2.444-2.424V293.152c0-1.455.978-2.425 2.444-2.425 1.467 0 2.445.97 2.445 2.425v155.152c0 1.454-.978 2.424-2.445 2.424zM1302.556 450.728c-1.467 0-2.445-.97-2.445-2.424V293.152c0-1.455.978-2.425 2.445-2.425 1.466 0 2.444.97 2.444 2.425v155.152c0 1.454-.978 2.424-2.444 2.424z"/>
        </g>
        <g fill="#333">
            <path d="M119.444 450.728c-.733 0-1.222-.243-1.71-.727-.978-.97-.978-2.425 0-3.394l39.11-38.788c.978-.97 2.445-.97 3.423 0 .977.97.977 2.424 0 3.394L121.156 450c-.49.484-.978.727-1.712.727zM119.444 411.94c-.733 0-1.222-.243-1.71-.727-.978-.97-.978-2.425 0-3.394l39.11-38.788c.978-.97 2.445-.97 3.423 0 .977.97.977 2.424 0 3.394l-39.111 38.788c-.49.484-.978.727-1.712.727zM119.444 373.152c-.733 0-1.222-.243-1.71-.727-.978-.97-.978-2.425 0-3.394l39.11-38.788c.978-.97 2.445-.97 3.423 0 .977.97.977 2.424 0 3.394l-39.111 38.788c-.49.484-.978.727-1.712.727zM119.444 334.364c-.733 0-1.222-.243-1.71-.727-.978-.97-.978-2.425 0-3.394l39.11-38.788c.978-.97 2.445-.97 3.423 0 .977.97.977 2.424 0 3.394l-39.111 38.788c-.49.484-.978.727-1.712.727z"/>
            <path d="M158.556 450.728c-.734 0-1.223-.243-1.712-.727l-39.11-38.788c-.978-.97-.978-2.425 0-3.394.977-.97 2.444-.97 3.422 0l39.11 38.788c.978.97.978 2.424 0 3.394-.488.484-.977.727-1.71.727zM158.556 411.94c-.734 0-1.223-.243-1.712-.727l-39.11-38.788c-.978-.97-.978-2.425 0-3.394.977-.97 2.444-.97 3.422 0l39.11 38.788c.978.97.978 2.424 0 3.394-.488.484-.977.727-1.71.727zM158.556 373.152c-.734 0-1.223-.243-1.712-.727l-39.11-38.788c-.978-.97-.978-2.425 0-3.394.977-.97 2.444-.97 3.422 0l39.11 38.788c.978.97.978 2.424 0 3.394-.488.484-.977.727-1.71.727zM158.556 334.364c-.734 0-1.223-.243-1.712-.727l-39.11-38.788c-.978-.97-.978-2.425 0-3.394.977-.97 2.444-.97 3.422 0l39.11 38.788c.978.97.978 2.424 0 3.394-.488.484-.977.727-1.71.727z"/>
            <path d="M158.556 334.364h-39.112c-1.466 0-2.444-.97-2.444-2.424 0-1.455.978-2.425 2.444-2.425h39.112c1.466 0 2.444.97 2.444 2.425 0 1.454-.978 2.424-2.444 2.424zM158.556 373.152h-39.112c-1.466 0-2.444-.97-2.444-2.424 0-1.455.978-2.425 2.444-2.425h39.112c1.466 0 2.444.97 2.444 2.425 0 1.454-.978 2.424-2.444 2.424zM158.556 411.94h-39.112c-1.466 0-2.444-.97-2.444-2.424 0-1.455.978-2.425 2.444-2.425h39.112c1.466 0 2.444.97 2.444 2.425 0 1.454-.978 2.424-2.444 2.424z"/>
            <path d="M119.444 450.728c-1.466 0-2.444-.97-2.444-2.424V293.152c0-1.455.978-2.425 2.444-2.425 1.467 0 2.445.97 2.445 2.425v155.152c0 1.454-.978 2.424-2.445 2.424zM158.556 450.728c-1.467 0-2.445-.97-2.445-2.424V293.152c0-1.455.978-2.425 2.445-2.425 1.466 0 2.444.97 2.444 2.425v155.152c0 1.454-.978 2.424-2.444 2.424z"/>
        </g>
        <path fill="#333" d="M1152.5 228.593c-1.487 0-2.48-.969-2.48-2.422V71.149c0-1.453.992-2.422 2.48-2.422s2.48.969 2.48 2.422V226.17c0 1.453-.992 2.422-2.48 2.422z"/>
        <path fill="#FFF" d="M1147.542 226.171h9.917v19.378h-9.918z"/>
        <path fill="#333" d="M1157.458 247.971h-9.916c-1.488 0-2.48-.969-2.48-2.422V226.17c0-1.453.992-2.422 2.48-2.422h9.916c1.488 0 2.48.969 2.48 2.422v19.378c0 1.453-.992 2.422-2.48 2.422zm-7.437-4.844h4.958v-14.534h-4.958v14.534zM1152.5 262.504c-4.215 0-7.438-3.149-7.438-7.266 0-1.454.992-2.423 2.48-2.423 1.487 0 2.479.97 2.479 2.423s.992 2.422 2.479 2.422c1.488 0 2.48-.969 2.48-2.422 0-1.454-.992-2.423-2.48-2.423-1.487 0-2.48-.968-2.48-2.422 0-1.453.992-2.422 2.48-2.422 4.215 0 7.438 3.149 7.438 7.267 0 4.117-3.223 7.266-7.438 7.266z"/>
        <path fill="#333" d="M1152.5 252.815c-1.487 0-2.48-.968-2.48-2.422v-3.633c0-1.453.992-2.422 2.48-2.422s2.48.969 2.48 2.422v3.633c0 1.454-.992 2.422-2.48 2.422zM1147.542 286.727h-.496a2.516 2.516 0 0 1-1.983-2.907l4.958-24.222c.248-1.211 1.487-2.18 2.975-1.938a2.516 2.516 0 0 1 1.983 2.907l-4.958 24.222c-.248 1.21-1.24 1.938-2.48 1.938z"/>
        <path fill="#333" d="M1157.458 286.727c-1.24 0-2.23-.727-2.479-1.938l-4.958-24.222c-.248-1.212.496-2.665 1.983-2.907 1.24-.242 2.727.484 2.975 1.938l4.958 24.222c.248 1.211-.495 2.664-1.983 2.907h-.496z"/>
        <path fill="#333" d="M1166.192 451h-145.384A21.715 21.715 0 0 1 999 429.197V128.803A21.715 21.715 0 0 1 1020.808 107h145.384A21.715 21.715 0 0 1 1188 128.803v300.394A21.715 21.715 0 0 1 1166.192 451zm-145.384-339.155c-9.45 0-16.962 7.51-16.962 16.958v300.394c0 9.448 7.512 16.958 16.962 16.958h145.384c9.45 0 16.962-7.51 16.962-16.958V128.803c0-9.448-7.512-16.958-16.962-16.958h-145.384z"/>
        <path fill="#333" d="M1175.586 413h-164.172c-1.448 0-2.414-.967-2.414-2.418V149.418c0-1.45.966-2.418 2.414-2.418h164.172c1.448 0 2.414.967 2.414 2.418v261.164c0 1.45-.966 2.418-2.414 2.418zm-161.757-4.836h159.342V151.836H1013.83v256.328zM1113.556 131h-39.112c-1.466 0-2.444-.8-2.444-2s.978-2 2.444-2h39.112c1.466 0 2.444.8 2.444 2s-.978 2-2.444 2zM1103.6 141h-19.2c-1.44 0-2.4-.8-2.4-2s.96-2 2.4-2h19.2c1.44 0 2.4.8 2.4 2s-.96 2-2.4 2zM1094 442c-6.72 0-12-5.28-12-12s5.28-12 12-12 12 5.28 12 12-5.28 12-12 12zm0-19.2c-4.08 0-7.2 3.12-7.2 7.2s3.12 7.2 7.2 7.2 7.2-3.12 7.2-7.2-3.12-7.2-7.2-7.2z"/>
        <g fill="#333">
            <path d="M1043.355 393.725h-14.613c-5.358 0-9.742-4.366-9.742-9.702V369.47c0-5.337 4.384-9.702 9.742-9.702h14.613c5.358 0 9.742 4.365 9.742 9.702v14.553c0 5.336-4.384 9.702-9.742 9.702zm-14.613-29.106c-2.68 0-4.871 2.182-4.871 4.85v14.554c0 2.668 2.192 4.85 4.87 4.85h14.614c2.679 0 4.87-2.182 4.87-4.85V369.47c0-2.669-2.191-4.851-4.87-4.851h-14.613zM1043.355 199.685h-14.613c-5.358 0-9.742-4.366-9.742-9.702V175.43c0-5.336 4.384-9.702 9.742-9.702h14.613c5.358 0 9.742 4.366 9.742 9.702v14.553c0 5.336-4.384 9.702-9.742 9.702zm-14.613-29.106c-2.68 0-4.871 2.183-4.871 4.85v14.554c0 2.668 2.192 4.85 4.87 4.85h14.614c2.679 0 4.87-2.182 4.87-4.85V175.43c0-2.668-2.191-4.851-4.87-4.851h-14.613zM1077.452 236.067c0-1.455 1.217-2.425 2.435-2.425s2.436.97 2.436 2.425c0 1.213-1.218 2.426-2.436 2.426s-2.435-.97-2.435-2.426zm-9.499 0c0-1.455 1.218-2.425 2.436-2.425 1.461 0 2.435.97 2.435 2.425 0 1.213-.974 2.426-2.435 2.426-1.218 0-2.436-.97-2.436-2.426zm-8.037-1.455c-.73-.97-.487-2.668.487-3.396.974-.728 2.68-.485 3.41.485s.487 2.668-.487 3.396c-.487.242-.974.485-1.461.485-.731 0-1.462-.243-1.949-.97zm27.034.485c-1.218-.728-1.461-2.183-.487-3.396.73-1.213 2.192-1.455 3.41-.485 1.217.728 1.46 2.183.487 3.396-.487.727-1.218.97-1.949.97-.487-.243-.974-.243-1.461-.485zm-28.982-10.915c0-1.455 1.217-2.425 2.435-2.425s2.436.97 2.436 2.425c0 1.213-1.218 2.426-2.436 2.426s-2.435-1.213-2.435-2.426zm29.226-.242c0-1.456 1.217-2.426 2.435-2.426s2.436.97 2.436 2.426c0 1.455-1.218 2.425-2.436 2.425s-2.435-1.213-2.435-2.425zm-29.226-9.217c0-1.456 1.217-2.426 2.435-2.426s2.436.97 2.436 2.426c0 1.212-1.218 2.425-2.436 2.425s-2.435-1.213-2.435-2.425zm29.226-.243c0-1.455 1.217-2.668 2.435-2.668s2.436.97 2.436 2.426v.242c0 1.213-1.218 2.426-2.436 2.426s-2.435-1.213-2.435-2.426zm-24.112-6.306c-.487-1.213.244-2.668 1.462-3.153 1.217-.485 2.679.242 3.166 1.455.487 1.213-.244 2.668-1.462 3.153-.243 0-.487.243-.73.243-1.218 0-2.192-.728-2.436-1.698zm20.458 1.455c-1.217-.242-2.192-1.698-1.705-2.91.488-1.213 1.705-1.94 2.923-1.698s1.948 1.698 1.705 2.91c-.244.97-1.218 1.698-2.436 1.698h-.487zm-11.203-2.668c0-1.455.974-2.425 2.436-2.425 1.217 0 2.435.97 2.435 2.425 0 1.213-1.218 2.426-2.435 2.426-1.218 0-2.436-.97-2.436-2.426zM1043.355 316.109h-14.613c-5.358 0-9.742-4.366-9.742-9.702v-14.553c0-5.337 4.384-9.702 9.742-9.702h14.613c5.358 0 9.742 4.365 9.742 9.702v14.553c0 5.336-4.384 9.702-9.742 9.702zm-14.613-29.106c-2.68 0-4.871 2.183-4.871 4.85v14.554c0 2.668 2.192 4.85 4.87 4.85h14.614c2.679 0 4.87-2.182 4.87-4.85v-14.553c0-2.668-2.191-4.851-4.87-4.851h-14.613zM1116.42 274.875c0-1.455 1.217-2.425 2.435-2.425s2.435.97 2.435 2.425c0 1.213-1.217 2.426-2.435 2.426s-2.436-.97-2.436-2.426zm-9.499 0c0-1.455 1.218-2.425 2.435-2.425 1.462 0 2.436.97 2.436 2.425 0 1.213-.974 2.426-2.436 2.426-1.217 0-2.435-.97-2.435-2.426zm-8.037-1.455c-.73-.97-.487-2.668.487-3.396.974-.728 2.679-.485 3.41.485.73.97.487 2.668-.487 3.396-.488.242-.975.485-1.462.485-.73 0-1.461-.243-1.948-.97zm27.034.485c-1.218-.728-1.462-2.183-.487-3.396.73-1.213 2.192-1.455 3.41-.485 1.217.728 1.46 2.183.486 3.396-.487.727-1.217.97-1.948.97-.487-.243-.974-.243-1.461-.485zm-28.983-10.915c0-1.455 1.218-2.425 2.436-2.425s2.435.97 2.435 2.425c0 1.213-1.217 2.426-2.435 2.426s-2.436-1.213-2.436-2.426zm29.226-.242c0-1.456 1.218-2.426 2.436-2.426s2.435.97 2.435 2.426c0 1.455-1.217 2.425-2.435 2.425s-2.436-1.213-2.436-2.425zm-29.226-9.217c0-1.213 1.218-2.426 2.436-2.426s2.435.97 2.435 2.426c0 1.455-1.217 2.425-2.435 2.425s-2.436-1.213-2.436-2.425zm29.226-.243c0-1.455 1.218-2.668 2.436-2.668s2.435.97 2.435 2.426v.242c0 1.213-1.217 2.426-2.435 2.426s-2.436-1.213-2.436-2.426zm-24.111-6.306c-.487-1.213.244-2.668 1.461-3.153 1.218-.485 2.68.242 3.166 1.455.488 1.213-.243 2.668-1.46 3.153-.244 0-.488.243-.732.243-1.217 0-2.191-.728-2.435-1.698zm20.458 1.455c-1.218-.242-2.192-1.698-1.705-2.91.487-1.213 1.705-1.94 2.923-1.698s1.948 1.698 1.705 2.91c-.244.97-1.218 1.698-2.436 1.698h-.487zm-11.203-2.668c0-1.455.974-2.425 2.435-2.425 1.218 0 2.436.97 2.436 2.425 0 1.213-1.218 2.426-2.436 2.426-1.217 0-2.435-.97-2.435-2.426zM1038.484 352.491c0-1.455 1.218-2.425 2.435-2.425 1.218 0 2.436.97 2.436 2.425 0 1.213-1.218 2.426-2.436 2.426-1.217 0-2.435-.97-2.435-2.426zm-9.499 0c0-1.455 1.218-2.425 2.436-2.425 1.461 0 2.435.97 2.435 2.425 0 1.213-.974 2.426-2.435 2.426-1.218 0-2.436-.97-2.436-2.426zm-8.037-1.455c-.73-.97-.487-2.668.487-3.396.975-.728 2.68-.485 3.41.485s.487 2.668-.487 3.396c-.487.242-.974.485-1.461.485-.73 0-1.462-.243-1.949-.97zm27.034.485c-1.217-.728-1.461-2.183-.487-3.396.73-1.213 2.192-1.455 3.41-.485 1.218.728 1.461 2.183.487 3.396-.487.727-1.218.97-1.948.97-.488-.243-.975-.243-1.462-.485zM1019 340.606c0-1.455 1.218-2.425 2.435-2.425 1.218 0 2.436.97 2.436 2.425 0 1.213-1.218 2.426-2.436 2.426-1.217 0-2.435-1.213-2.435-2.426zm29.226-.242c0-1.456 1.218-2.426 2.435-2.426 1.218 0 2.436.97 2.436 2.426 0 1.455-1.218 2.425-2.436 2.425-1.217 0-2.435-1.213-2.435-2.425zM1019 331.147c0-1.456 1.218-2.426 2.435-2.426 1.218 0 2.436.97 2.436 2.426 0 1.212-1.218 2.425-2.436 2.425-1.217 0-2.435-1.213-2.435-2.425zm29.226-.243c0-.242 0-.242 0 0 0-1.455 1.218-2.425 2.435-2.425 1.218 0 2.436.97 2.436 2.425v.243c0 1.212-1.218 2.425-2.436 2.425-1.217-.242-2.435-1.455-2.435-2.668zm-24.111-6.306c-.488-1.213.243-2.668 1.46-3.153 1.219-.485 2.68.242 3.167 1.455.487 1.213-.244 2.668-1.461 3.153-.244 0-.487.243-.731.243-1.218 0-2.192-.728-2.435-1.698zm20.458 1.455c-1.218-.242-1.949-1.698-1.705-2.91.487-1.213 1.705-1.94 2.922-1.698 1.218.242 1.949 1.698 1.705 2.91-.243.97-1.218 1.698-2.435 1.698h-.487zm-11.204-2.668c0-1.455.975-2.425 2.436-2.425 1.218 0 2.435.97 2.435 2.425 0 1.213-1.217 2.426-2.435 2.426s-2.436-.97-2.436-2.426zM1082.323 393.725h-14.613c-5.358 0-9.742-4.366-9.742-9.702V369.47c0-5.337 4.384-9.702 9.742-9.702h14.613c5.358 0 9.742 4.365 9.742 9.702v14.553c0 5.336-4.384 9.702-9.742 9.702zm-14.613-29.106c-2.68 0-4.871 2.182-4.871 4.85v14.554c0 2.668 2.192 4.85 4.87 4.85h14.614c2.679 0 4.87-2.182 4.87-4.85V369.47c0-2.669-2.191-4.851-4.87-4.851h-14.613zM1121.29 393.725h-14.613c-5.358 0-9.742-4.366-9.742-9.702V369.47c0-5.337 4.384-9.702 9.742-9.702h14.613c5.358 0 9.742 4.365 9.742 9.702v14.553c0 5.336-4.384 9.702-9.742 9.702zm-14.613-29.106c-2.679 0-4.87 2.182-4.87 4.85v14.554c0 2.668 2.191 4.85 4.87 4.85h14.613c2.68 0 4.871-2.182 4.871-4.85V369.47c0-2.669-2.192-4.851-4.87-4.851h-14.614zM1160.258 316.109h-14.613c-5.358 0-9.742-4.366-9.742-9.702v-14.553c0-5.337 4.384-9.702 9.742-9.702h14.613c5.358 0 9.742 4.365 9.742 9.702v14.553c0 5.336-4.384 9.702-9.742 9.702zm-14.613-29.106c-2.679 0-4.87 2.183-4.87 4.85v14.554c0 2.668 2.191 4.85 4.87 4.85h14.613c2.68 0 4.871-2.182 4.871-4.85v-14.553c0-2.668-2.192-4.851-4.87-4.851h-14.614z"/>
        </g>
        <g>
            <path fill="#97D217" d="M1321.152 61.481h-67.885v68.042h58.187l9.698-9.72zM1195.08 61.481h29.094v29.161h-29.094z"/>
            <path fill="#4C4C4C" d="M1001.122 61.481h193.957v9.72h-193.957z"/>
            <path fill="#333" d="M1195.08 63.911H991.424c-1.454 0-2.424-.972-2.424-2.43 0-1.458.97-2.43 2.424-2.43h203.656c1.454 0 2.424.972 2.424 2.43 0 1.458-.97 2.43-2.424 2.43z"/>
            <path fill="#333" d="M1224.173 93.072h-29.093c-1.455 0-2.425-.972-2.425-2.43V61.48c0-1.458.97-2.43 2.425-2.43h29.093c1.455 0 2.425.972 2.425 2.43v29.16c0 1.459-.97 2.431-2.425 2.431zm-26.669-4.86h24.245V63.91h-24.245v24.3z"/>
            <path fill="#FFF" d="M1204.777 71.201h9.698v9.72h-9.698z"/>
            <path fill="#333" d="M1214.475 83.352h-9.698c-1.454 0-2.424-.972-2.424-2.43v-9.72c0-1.459.97-2.43 2.424-2.43h9.698c1.455 0 2.425.971 2.425 2.43v9.72c0 1.458-.97 2.43-2.425 2.43zm-7.273-4.86h4.849v-4.86h-4.85v4.86zM1192.655 73.631h-191.533c-1.454 0-2.424-.972-2.424-2.43 0-1.458.97-2.43 2.424-2.43h191.533c1.455 0 2.425.972 2.425 2.43 0 1.458-.97 2.43-2.425 2.43zM1224.173 452.723c-1.455 0-2.424-.972-2.424-2.43V90.642c0-1.458.97-2.43 2.424-2.43 1.455 0 2.425.972 2.425 2.43v359.651c0 1.458-.97 2.43-2.425 2.43zM1243.569 452.723c-1.455 0-2.425-.972-2.425-2.43V61.481c0-1.458.97-2.43 2.425-2.43 1.455 0 2.424.972 2.424 2.43v388.812c0 1.458-.97 2.43-2.424 2.43z"/>
            <g fill="#333">
                <path d="M1224.173 433.283c-.727 0-1.212-.243-1.697-.73-.97-.971-.97-2.43 0-3.401l19.396-19.44c.97-.973 2.424-.973 3.394 0 .97.971.97 2.43 0 3.401l-19.396 19.44c-.485.487-.97.73-1.697.73z"/>
                <path d="M1243.569 433.283h-19.396c-1.455 0-2.424-.972-2.424-2.43 0-1.458.97-2.43 2.424-2.43h19.396c1.455 0 2.424.972 2.424 2.43 0 1.458-.97 2.43-2.424 2.43zM1224.173 413.842c-.727 0-1.212-.243-1.697-.729-.97-.972-.97-2.43 0-3.402l19.396-19.44c.97-.973 2.424-.973 3.394 0 .97.972.97 2.43 0 3.402l-19.396 19.44c-.485.486-.97.73-1.697.73z"/>
                <path d="M1243.569 413.842h-19.396c-1.455 0-2.424-.972-2.424-2.43 0-1.458.97-2.43 2.424-2.43h19.396c1.455 0 2.424.972 2.424 2.43 0 1.458-.97 2.43-2.424 2.43zM1224.173 394.402c-.727 0-1.212-.243-1.697-.73-.97-.971-.97-2.43 0-3.402l19.396-19.44c.97-.972 2.424-.972 3.394 0 .97.972.97 2.43 0 3.402l-19.396 19.44c-.485.487-.97.73-1.697.73z"/>
                <path d="M1243.569 394.402h-19.396c-1.455 0-2.424-.972-2.424-2.43 0-1.459.97-2.43 2.424-2.43h19.396c1.455 0 2.424.971 2.424 2.43 0 1.458-.97 2.43-2.424 2.43zM1224.173 374.961c-.727 0-1.212-.243-1.697-.729-.97-.972-.97-2.43 0-3.402l19.396-19.44c.97-.973 2.424-.973 3.394 0 .97.971.97 2.43 0 3.401l-19.396 19.441c-.485.486-.97.729-1.697.729z"/>
                <path d="M1243.569 374.961h-19.396c-1.455 0-2.424-.972-2.424-2.43 0-1.458.97-2.43 2.424-2.43h19.396c1.455 0 2.424.972 2.424 2.43 0 1.458-.97 2.43-2.424 2.43zM1224.173 355.52c-.727 0-1.212-.243-1.697-.729-.97-.972-.97-2.43 0-3.402l19.396-19.44c.97-.972 2.424-.972 3.394 0 .97.972.97 2.43 0 3.402l-19.396 19.44c-.485.486-.97.73-1.697.73z"/>
                <path d="M1243.569 355.52h-19.396c-1.455 0-2.424-.972-2.424-2.43 0-1.458.97-2.43 2.424-2.43h19.396c1.455 0 2.424.972 2.424 2.43 0 1.458-.97 2.43-2.424 2.43zM1224.173 336.08c-.727 0-1.212-.243-1.697-.73-.97-.971-.97-2.43 0-3.401l19.396-19.441c.97-.972 2.424-.972 3.394 0 .97.972.97 2.43 0 3.402l-19.396 19.44c-.485.487-.97.73-1.697.73z"/>
                <path d="M1243.569 336.08h-19.396c-1.455 0-2.424-.972-2.424-2.43 0-1.458.97-2.43 2.424-2.43h19.396c1.455 0 2.424.972 2.424 2.43 0 1.458-.97 2.43-2.424 2.43zM1224.173 316.64c-.727 0-1.212-.244-1.697-.73-.97-.972-.97-2.43 0-3.402l19.396-19.44c.97-.973 2.424-.973 3.394 0 .97.971.97 2.43 0 3.401l-19.396 19.441c-.485.486-.97.73-1.697.73z"/>
                <path d="M1243.569 316.64h-19.396c-1.455 0-2.424-.973-2.424-2.431 0-1.458.97-2.43 2.424-2.43h19.396c1.455 0 2.424.972 2.424 2.43 0 1.458-.97 2.43-2.424 2.43zM1224.173 297.199c-.727 0-1.212-.244-1.697-.73-.97-.972-.97-2.43 0-3.402l19.396-19.44c.97-.972 2.424-.972 3.394 0 .97.972.97 2.43 0 3.402l-19.396 19.44c-.485.486-.97.73-1.697.73z"/>
                <path d="M1243.569 297.199h-19.396c-1.455 0-2.424-.973-2.424-2.43 0-1.459.97-2.43 2.424-2.43h19.396c1.455 0 2.424.971 2.424 2.43 0 1.457-.97 2.43-2.424 2.43zM1224.173 277.758c-.727 0-1.212-.243-1.697-.73-.97-.971-.97-2.43 0-3.401l19.396-19.44c.97-.973 2.424-.973 3.394 0 .97.971.97 2.43 0 3.401l-19.396 19.44c-.485.487-.97.73-1.697.73z"/>
                <path d="M1243.569 277.758h-19.396c-1.455 0-2.424-.972-2.424-2.43 0-1.458.97-2.43 2.424-2.43h19.396c1.455 0 2.424.972 2.424 2.43 0 1.458-.97 2.43-2.424 2.43zM1224.173 258.317c-.727 0-1.212-.243-1.697-.729-.97-.972-.97-2.43 0-3.402l19.396-19.44c.97-.973 2.424-.973 3.394 0 .97.972.97 2.43 0 3.402l-19.396 19.44c-.485.486-.97.73-1.697.73z"/>
                <path d="M1243.569 258.317h-19.396c-1.455 0-2.424-.972-2.424-2.43 0-1.458.97-2.43 2.424-2.43h19.396c1.455 0 2.424.972 2.424 2.43 0 1.458-.97 2.43-2.424 2.43z"/>
                <g>
                    <path d="M1224.173 238.877c-.727 0-1.212-.243-1.697-.73-.97-.971-.97-2.43 0-3.401l19.396-19.441c.97-.972 2.424-.972 3.394 0 .97.972.97 2.43 0 3.402l-19.396 19.44c-.485.487-.97.73-1.697.73z"/>
                    <path d="M1243.569 238.877h-19.396c-1.455 0-2.424-.972-2.424-2.43 0-1.458.97-2.43 2.424-2.43h19.396c1.455 0 2.424.972 2.424 2.43 0 1.458-.97 2.43-2.424 2.43z"/>
                </g>
                <g>
                    <path d="M1224.173 219.436c-.727 0-1.212-.243-1.697-.729-.97-.972-.97-2.43 0-3.402l19.396-19.44c.97-.973 2.424-.973 3.394 0 .97.971.97 2.43 0 3.401l-19.396 19.441c-.485.486-.97.729-1.697.729z"/>
                    <path d="M1243.569 219.436h-19.396c-1.455 0-2.424-.972-2.424-2.43 0-1.458.97-2.43 2.424-2.43h19.396c1.455 0 2.424.972 2.424 2.43 0 1.458-.97 2.43-2.424 2.43z"/>
                </g>
                <g>
                    <path d="M1224.173 199.995c-.727 0-1.212-.243-1.697-.729-.97-.972-.97-2.43 0-3.402l19.396-19.44c.97-.972 2.424-.972 3.394 0 .97.972.97 2.43 0 3.402l-19.396 19.44c-.485.486-.97.73-1.697.73z"/>
                    <path d="M1243.569 199.995h-19.396c-1.455 0-2.424-.972-2.424-2.43 0-1.458.97-2.43 2.424-2.43h19.396c1.455 0 2.424.972 2.424 2.43 0 1.458-.97 2.43-2.424 2.43z"/>
                </g>
                <g>
                    <path d="M1224.173 180.555c-.727 0-1.212-.243-1.697-.73-.97-.971-.97-2.43 0-3.401l19.396-19.441c.97-.972 2.424-.972 3.394 0 .97.972.97 2.43 0 3.402l-19.396 19.44c-.485.487-.97.73-1.697.73z"/>
                    <path d="M1243.569 180.555h-19.396c-1.455 0-2.424-.972-2.424-2.43 0-1.458.97-2.43 2.424-2.43h19.396c1.455 0 2.424.972 2.424 2.43 0 1.458-.97 2.43-2.424 2.43z"/>
                </g>
                <g>
                    <path d="M1224.173 161.114c-.727 0-1.212-.243-1.697-.729-.97-.972-.97-2.43 0-3.402l19.396-19.44c.97-.973 2.424-.973 3.394 0 .97.971.97 2.43 0 3.402l-19.396 19.44c-.485.486-.97.73-1.697.73z"/>
                    <path d="M1243.569 161.114h-19.396c-1.455 0-2.424-.972-2.424-2.43 0-1.458.97-2.43 2.424-2.43h19.396c1.455 0 2.424.972 2.424 2.43 0 1.458-.97 2.43-2.424 2.43z"/>
                </g>
                <g>
                    <path d="M1224.173 141.674c-.727 0-1.212-.243-1.697-.73-.97-.972-.97-2.43 0-3.402l19.396-19.44c.97-.972 2.424-.972 3.394 0 .97.972.97 2.43 0 3.402l-19.396 19.44c-.485.487-.97.73-1.697.73z"/>
                    <path d="M1243.569 141.674h-19.396c-1.455 0-2.424-.973-2.424-2.43 0-1.459.97-2.43 2.424-2.43h19.396c1.455 0 2.424.971 2.424 2.43 0 1.457-.97 2.43-2.424 2.43z"/>
                </g>
                <g>
                    <path d="M1224.173 122.233c-.727 0-1.212-.243-1.697-.73-.97-.971-.97-2.43 0-3.401l19.396-19.44c.97-.973 2.424-.973 3.394 0 .97.971.97 2.43 0 3.401l-19.396 19.44c-.485.487-.97.73-1.697.73z"/>
                    <path d="M1243.569 122.233h-19.396c-1.455 0-2.424-.972-2.424-2.43 0-1.458.97-2.43 2.424-2.43h19.396c1.455 0 2.424.972 2.424 2.43 0 1.458-.97 2.43-2.424 2.43z"/>
                </g>
                <g>
                    <path d="M1224.173 102.792c-.727 0-1.212-.243-1.697-.729-.97-.972-.97-2.43 0-3.402l19.396-19.44c.97-.972 2.424-.972 3.394 0 .97.972.97 2.43 0 3.402l-19.396 19.44c-.485.486-.97.73-1.697.73z"/>
                    <path d="M1243.569 102.792h-19.396c-1.455 0-2.424-.972-2.424-2.43 0-1.458.97-2.43 2.424-2.43h19.396c1.455 0 2.424.972 2.424 2.43 0 1.458-.97 2.43-2.424 2.43z"/>
                </g>
                <g>
                    <path d="M1224.173 83.352c-.727 0-1.212-.243-1.697-.73-.97-.971-.97-2.43 0-3.401l19.396-19.441c.97-.972 2.424-.972 3.394 0 .97.972.97 2.43 0 3.402l-19.396 19.44c-.485.487-.97.73-1.697.73z"/>
                    <path d="M1243.569 83.352h-19.396c-1.455 0-2.424-.972-2.424-2.43 0-1.458.97-2.43 2.424-2.43h19.396c1.455 0 2.424.972 2.424 2.43 0 1.458-.97 2.43-2.424 2.43z"/>
                </g>
            </g>
            <g fill="#333">
                <path d="M1301.756 63.911c-.727 0-1.212-.243-1.697-.729-.97-.972-.97-2.43 0-3.402l19.396-19.44c.97-.973 2.424-.973 3.394 0 .97.971.97 2.43 0 3.401l-19.396 19.441c-.485.486-.97.729-1.697.729z"/>
                <path d="M1321.152 63.911c-1.455 0-2.425-.972-2.425-2.43v-19.44c0-1.459.97-2.43 2.425-2.43 1.454 0 2.424.971 2.424 2.43v19.44c0 1.458-.97 2.43-2.424 2.43zM1282.36 63.911c-.727 0-1.212-.243-1.697-.729-.97-.972-.97-2.43 0-3.402l19.396-19.44c.97-.973 2.424-.973 3.394 0 .97.971.97 2.43 0 3.401l-19.396 19.441c-.484.486-.97.729-1.697.729z"/>
                <path d="M1301.756 63.911c-1.455 0-2.424-.972-2.424-2.43v-19.44c0-1.459.97-2.43 2.424-2.43 1.455 0 2.425.971 2.425 2.43v19.44c0 1.458-.97 2.43-2.425 2.43zM1262.965 63.911c-.728 0-1.213-.243-1.697-.729-.97-.972-.97-2.43 0-3.402l19.395-19.44c.97-.973 2.425-.973 3.394 0 .97.971.97 2.43 0 3.401l-19.395 19.441c-.485.486-.97.729-1.697.729z"/>
                <path d="M1282.36 63.911c-1.454 0-2.424-.972-2.424-2.43v-19.44c0-1.459.97-2.43 2.424-2.43 1.455 0 2.425.971 2.425 2.43v19.44c0 1.458-.97 2.43-2.425 2.43zM1243.569 63.911c-.727 0-1.212-.243-1.697-.729-.97-.972-.97-2.43 0-3.402l19.396-19.44c.97-.973 2.424-.973 3.394 0 .97.971.97 2.43 0 3.401l-19.396 19.441c-.485.486-.97.729-1.697.729z"/>
                <path d="M1262.965 63.911c-1.455 0-2.425-.972-2.425-2.43v-19.44c0-1.459.97-2.43 2.425-2.43 1.454 0 2.424.971 2.424 2.43v19.44c0 1.458-.97 2.43-2.424 2.43zM1224.173 63.911c-.727 0-1.212-.243-1.697-.729-.97-.972-.97-2.43 0-3.402l19.396-19.44c.97-.973 2.424-.973 3.394 0 .97.971.97 2.43 0 3.401l-19.396 19.441c-.485.486-.97.729-1.697.729z"/>
                <path d="M1243.569 63.911c-1.455 0-2.425-.972-2.425-2.43v-19.44c0-1.459.97-2.43 2.425-2.43 1.455 0 2.424.971 2.424 2.43v19.44c0 1.458-.97 2.43-2.424 2.43zM1204.777 63.911c-.727 0-1.212-.243-1.697-.729-.97-.972-.97-2.43 0-3.402l19.396-19.44c.97-.973 2.425-.973 3.394 0 .97.971.97 2.43 0 3.401l-19.395 19.441c-.485.486-.97.729-1.698.729z"/>
                <path d="M1224.173 63.911c-1.455 0-2.424-.972-2.424-2.43v-19.44c0-1.459.97-2.43 2.424-2.43 1.455 0 2.425.971 2.425 2.43v19.44c0 1.458-.97 2.43-2.425 2.43zM1185.382 63.911c-.728 0-1.213-.243-1.697-.729-.97-.972-.97-2.43 0-3.402l19.395-19.44c.97-.973 2.425-.973 3.395 0 .97.971.97 2.43 0 3.401l-19.396 19.441c-.485.486-.97.729-1.697.729z"/>
                <path d="M1204.777 63.911c-1.454 0-2.424-.972-2.424-2.43v-19.44c0-1.459.97-2.43 2.424-2.43 1.455 0 2.425.971 2.425 2.43v19.44c0 1.458-.97 2.43-2.425 2.43zM1165.986 63.911c-.727 0-1.212-.243-1.697-.729-.97-.972-.97-2.43 0-3.402l19.396-19.44c.97-.973 2.424-.973 3.394 0 .97.971.97 2.43 0 3.401l-19.396 19.441c-.485.486-.97.729-1.697.729z"/>
                <path d="M1185.382 63.911c-1.455 0-2.425-.972-2.425-2.43v-19.44c0-1.459.97-2.43 2.425-2.43 1.454 0 2.424.971 2.424 2.43v19.44c0 1.458-.97 2.43-2.424 2.43zM1146.59 63.911c-.727 0-1.212-.243-1.697-.729-.97-.972-.97-2.43 0-3.402l19.396-19.44c.97-.973 2.424-.973 3.394 0 .97.971.97 2.43 0 3.401l-19.396 19.441c-.484.486-.97.729-1.697.729z"/>
                <path d="M1165.986 63.911c-1.455 0-2.424-.972-2.424-2.43v-19.44c0-1.459.97-2.43 2.424-2.43 1.455 0 2.424.971 2.424 2.43v19.44c0 1.458-.97 2.43-2.424 2.43z"/>
                <g>
                    <path d="M1127.195 63.911c-.728 0-1.213-.243-1.698-.729-.97-.972-.97-2.43 0-3.402l19.396-19.44c.97-.973 2.425-.973 3.394 0 .97.971.97 2.43 0 3.401l-19.395 19.441c-.485.486-.97.729-1.697.729z"/>
                    <path d="M1146.59 63.911c-1.454 0-2.424-.972-2.424-2.43v-19.44c0-1.459.97-2.43 2.424-2.43 1.455 0 2.425.971 2.425 2.43v19.44c0 1.458-.97 2.43-2.425 2.43z"/>
                </g>
                <g>
                    <path d="M1107.799 63.911c-.728 0-1.212-.243-1.697-.729-.97-.972-.97-2.43 0-3.402l19.395-19.44c.97-.973 2.425-.973 3.395 0 .97.971.97 2.43 0 3.401l-19.396 19.441c-.485.486-.97.729-1.697.729z"/>
                    <path d="M1127.195 63.911c-1.455 0-2.425-.972-2.425-2.43v-19.44c0-1.459.97-2.43 2.425-2.43 1.454 0 2.424.971 2.424 2.43v19.44c0 1.458-.97 2.43-2.424 2.43z"/>
                </g>
                <g>
                    <path d="M1088.403 63.911c-.727 0-1.212-.243-1.697-.729-.97-.972-.97-2.43 0-3.402l19.396-19.44c.97-.973 2.424-.973 3.394 0 .97.971.97 2.43 0 3.401L1090.1 63.182c-.485.486-.97.729-1.697.729z"/>
                    <path d="M1107.799 63.911c-1.455 0-2.425-.972-2.425-2.43v-19.44c0-1.459.97-2.43 2.425-2.43 1.455 0 2.424.971 2.424 2.43v19.44c0 1.458-.97 2.43-2.424 2.43z"/>
                </g>
                <g>
                    <path d="M1069.007 63.911c-.727 0-1.212-.243-1.697-.729-.97-.972-.97-2.43 0-3.402l19.396-19.44c.97-.973 2.424-.973 3.394 0 .97.971.97 2.43 0 3.401l-19.396 19.441c-.484.486-.97.729-1.697.729z"/>
                    <path d="M1088.403 63.911c-1.455 0-2.424-.972-2.424-2.43v-19.44c0-1.459.97-2.43 2.424-2.43 1.455 0 2.425.971 2.425 2.43v19.44c0 1.458-.97 2.43-2.425 2.43z"/>
                </g>
                <g>
                    <path d="M1049.612 63.911c-.728 0-1.213-.243-1.697-.729-.97-.972-.97-2.43 0-3.402l19.395-19.44c.97-.973 2.425-.973 3.394 0 .97.971.97 2.43 0 3.401l-19.395 19.441c-.485.486-.97.729-1.697.729z"/>
                    <path d="M1069.007 63.911c-1.454 0-2.424-.972-2.424-2.43v-19.44c0-1.459.97-2.43 2.424-2.43 1.455 0 2.425.971 2.425 2.43v19.44c0 1.458-.97 2.43-2.425 2.43z"/>
                </g>
                <g>
                    <path d="M1030.216 63.911c-.727 0-1.212-.243-1.697-.729-.97-.972-.97-2.43 0-3.402l19.396-19.44c.97-.973 2.424-.973 3.394 0 .97.971.97 2.43 0 3.401l-19.396 19.441c-.485.486-.97.729-1.697.729z"/>
                    <path d="M1049.612 63.911c-1.455 0-2.425-.972-2.425-2.43v-19.44c0-1.459.97-2.43 2.425-2.43 1.454 0 2.424.971 2.424 2.43v19.44c0 1.458-.97 2.43-2.424 2.43z"/>
                </g>
                <g>
                    <path d="M1010.82 63.911c-.727 0-1.212-.243-1.697-.729-.97-.972-.97-2.43 0-3.402l19.396-19.44c.97-.973 2.424-.973 3.394 0 .97.971.97 2.43 0 3.401l-19.396 19.441c-.485.486-.97.729-1.697.729z"/>
                    <path d="M1030.216 63.911c-1.455 0-2.425-.972-2.425-2.43v-19.44c0-1.459.97-2.43 2.425-2.43 1.455 0 2.424.971 2.424 2.43v19.44c0 1.458-.97 2.43-2.424 2.43z"/>
                </g>
                <g>
                    <path d="M991.424 63.911c-.727 0-1.212-.243-1.697-.729-.97-.972-.97-2.43 0-3.402l19.396-19.44c.97-.973 2.425-.973 3.394 0 .97.971.97 2.43 0 3.401l-19.395 19.441c-.485.486-.97.729-1.698.729z"/>
                    <path d="M1010.82 63.911c-1.454 0-2.424-.972-2.424-2.43v-19.44c0-1.459.97-2.43 2.424-2.43 1.455 0 2.425.971 2.425 2.43v19.44c0 1.458-.97 2.43-2.425 2.43z"/>
                </g>
            </g>
            <path fill="#333" d="M1321.152 63.911h-96.979c-1.455 0-2.424-.972-2.424-2.43 0-1.458.97-2.43 2.424-2.43h96.979c1.454 0 2.424.972 2.424 2.43 0 1.458-.97 2.43-2.424 2.43zM1321.152 44.47H1010.82c-1.454 0-2.424-.972-2.424-2.43 0-1.458.97-2.43 2.424-2.43h310.332c1.454 0 2.424.972 2.424 2.43 0 1.458-.97 2.43-2.424 2.43z"/>
            <path fill="#333" d="M1224.173 44.47c-1.455 0-2.424-.972-2.424-2.43V3.16c0-1.459.97-2.431 2.424-2.431 1.455 0 2.425.972 2.425 2.43V42.04c0 1.458-.97 2.43-2.425 2.43zM1243.569 44.47c-1.455 0-2.425-.972-2.425-2.43V3.16c0-1.459.97-2.431 2.425-2.431 1.455 0 2.424.972 2.424 2.43V42.04c0 1.458-.97 2.43-2.424 2.43z"/>
            <path fill="#333" d="M1224.173 44.47c-.727 0-1.212-.243-1.697-.729-.97-.972-.97-2.43 0-3.402l19.396-19.44c.97-.972 2.424-.972 3.394 0 .97.972.97 2.43 0 3.402l-19.396 19.44c-.485.486-.97.73-1.697.73z"/>
            <path fill="#333" d="M1243.569 25.03h-19.396c-1.455 0-2.424-.972-2.424-2.43 0-1.458.97-2.43 2.424-2.43h19.396c1.455 0 2.424.972 2.424 2.43 0 1.458-.97 2.43-2.424 2.43z"/>
            <path fill="#333" d="M1224.173 25.03c-.727 0-1.212-.243-1.697-.73-.97-.971-.97-2.43 0-3.401l19.396-19.441c.97-.972 2.424-.972 3.394 0 .97.972.97 2.43 0 3.402L1225.87 24.3c-.485.487-.97.73-1.697.73zM1311.454 131.953h-58.187c-1.455 0-2.425-.972-2.425-2.43V61.481c0-1.458.97-2.43 2.425-2.43h67.885c1.454 0 2.424.972 2.424 2.43v58.322c0 .729-.242 1.215-.727 1.7l-9.698 9.721c-.485.486-.97.73-1.697.73zm-55.763-4.86h54.793l8.243-8.262V63.91h-63.036v63.182z"/>
            <g fill="#333">
                <path d="M1321.152 122.233h-67.885c-1.455 0-2.425-.972-2.425-2.43 0-1.458.97-2.43 2.425-2.43h67.885c1.454 0 2.424.972 2.424 2.43 0 1.458-.97 2.43-2.424 2.43zM1321.152 112.513h-67.885c-1.455 0-2.425-.972-2.425-2.43 0-1.459.97-2.43 2.425-2.43h67.885c1.454 0 2.424.971 2.424 2.43 0 1.458-.97 2.43-2.424 2.43zM1321.152 102.792h-67.885c-1.455 0-2.425-.972-2.425-2.43 0-1.458.97-2.43 2.425-2.43h67.885c1.454 0 2.424.972 2.424 2.43 0 1.458-.97 2.43-2.424 2.43zM1321.152 93.072h-67.885c-1.455 0-2.425-.972-2.425-2.43 0-1.458.97-2.43 2.425-2.43h67.885c1.454 0 2.424.972 2.424 2.43 0 1.458-.97 2.43-2.424 2.43zM1321.152 83.352h-67.885c-1.455 0-2.425-.972-2.425-2.43 0-1.458.97-2.43 2.425-2.43h67.885c1.454 0 2.424.972 2.424 2.43 0 1.458-.97 2.43-2.424 2.43zM1321.152 73.631h-67.885c-1.455 0-2.425-.972-2.425-2.43 0-1.458.97-2.43 2.425-2.43h67.885c1.454 0 2.424.972 2.424 2.43 0 1.458-.97 2.43-2.424 2.43z"/>
            </g>
            <path fill="#333" d="M1001.122 73.631c-1.454 0-2.424-.972-2.424-2.43v-9.72c0-1.458.97-2.43 2.424-2.43 1.455 0 2.425.972 2.425 2.43v9.72c0 1.458-.97 2.43-2.425 2.43z"/>
            <g fill="#333">
                <path d="M1253.267 122.233h-9.698c-1.455 0-2.425-.972-2.425-2.43 0-1.458.97-2.43 2.425-2.43h9.698c1.454 0 2.424.972 2.424 2.43 0 1.458-.97 2.43-2.424 2.43zM1253.267 112.513h-9.698c-1.455 0-2.425-.972-2.425-2.43 0-1.459.97-2.43 2.425-2.43h9.698c1.454 0 2.424.971 2.424 2.43 0 1.458-.97 2.43-2.424 2.43zM1253.267 102.792h-9.698c-1.455 0-2.425-.972-2.425-2.43 0-1.458.97-2.43 2.425-2.43h9.698c1.454 0 2.424.972 2.424 2.43 0 1.458-.97 2.43-2.424 2.43zM1253.267 93.072h-9.698c-1.455 0-2.425-.972-2.425-2.43 0-1.458.97-2.43 2.425-2.43h9.698c1.454 0 2.424.972 2.424 2.43 0 1.458-.97 2.43-2.424 2.43zM1253.267 83.352h-9.698c-1.455 0-2.425-.972-2.425-2.43 0-1.458.97-2.43 2.425-2.43h9.698c1.454 0 2.424.972 2.424 2.43 0 1.458-.97 2.43-2.424 2.43zM1253.267 73.631h-9.698c-1.455 0-2.425-.972-2.425-2.43 0-1.458.97-2.43 2.425-2.43h9.698c1.454 0 2.424.972 2.424 2.43 0 1.458-.97 2.43-2.424 2.43z"/>
            </g>
        </g>
        <path fill="#333" d="M943 453c-1.2 0-2-.974-2-2.434V197.434c0-1.46.8-2.434 2-2.434s2 .974 2 2.434v253.132c0 1.46-.8 2.434-2 2.434zM963 453c-1.2 0-2-.974-2-2.434V197.434c0-1.46.8-2.434 2-2.434s2 .974 2 2.434v253.132c0 1.46-.8 2.434-2 2.434z"/>
        <g fill="#333">
            <path d="M943.4 451.306c-.72 0-1.2-.242-1.68-.727-.96-.968-.96-2.42 0-3.388l19.2-19.365c.96-.968 2.4-.968 3.36 0s.96 2.42 0 3.389l-19.2 19.364c-.48.485-.96.727-1.68.727z"/>
            <path d="M962.6 451.306h-19.2c-1.44 0-2.4-.969-2.4-2.421s.96-2.42 2.4-2.42h19.2c1.44 0 2.4.968 2.4 2.42s-.96 2.42-2.4 2.42zM943.4 431.941c-.72 0-1.2-.242-1.68-.726-.96-.968-.96-2.42 0-3.389l19.2-19.364c.96-.969 2.4-.969 3.36 0 .96.968.96 2.42 0 3.388l-19.2 19.365c-.48.484-.96.726-1.68.726z"/>
            <path d="M962.6 431.941h-19.2c-1.44 0-2.4-.968-2.4-2.42 0-1.453.96-2.421 2.4-2.421h19.2c1.44 0 2.4.968 2.4 2.42 0 1.453-.96 2.421-2.4 2.421zM943.4 412.577c-.72 0-1.2-.242-1.68-.727-.96-.968-.96-2.42 0-3.388l19.2-19.365c.96-.968 2.4-.968 3.36 0s.96 2.42 0 3.389l-19.2 19.364c-.48.485-.96.727-1.68.727z"/>
            <path d="M962.6 412.577h-19.2c-1.44 0-2.4-.969-2.4-2.42 0-1.453.96-2.421 2.4-2.421h19.2c1.44 0 2.4.968 2.4 2.42s-.96 2.42-2.4 2.42zM943.4 393.212c-.72 0-1.2-.242-1.68-.726-.96-.968-.96-2.42 0-3.389l19.2-19.364c.96-.969 2.4-.969 3.36 0 .96.968.96 2.42 0 3.388l-19.2 19.365c-.48.484-.96.726-1.68.726z"/>
            <path d="M962.6 393.212h-19.2c-1.44 0-2.4-.968-2.4-2.42 0-1.453.96-2.421 2.4-2.421h19.2c1.44 0 2.4.968 2.4 2.42 0 1.453-.96 2.421-2.4 2.421zM943.4 373.848c-.72 0-1.2-.242-1.68-.727-.96-.968-.96-2.42 0-3.388l19.2-19.365c.96-.968 2.4-.968 3.36 0s.96 2.42 0 3.389l-19.2 19.364c-.48.485-.96.727-1.68.727z"/>
            <path d="M962.6 373.848h-19.2c-1.44 0-2.4-.969-2.4-2.42 0-1.453.96-2.421 2.4-2.421h19.2c1.44 0 2.4.968 2.4 2.42s-.96 2.42-2.4 2.42zM943.4 354.483c-.72 0-1.2-.242-1.68-.726-.96-.968-.96-2.42 0-3.389l19.2-19.364c.96-.968 2.4-.968 3.36 0s.96 2.42 0 3.389l-19.2 19.364c-.48.484-.96.726-1.68.726z"/>
            <path d="M962.6 354.483h-19.2c-1.44 0-2.4-.968-2.4-2.42 0-1.453.96-2.42 2.4-2.42h19.2c1.44 0 2.4.967 2.4 2.42 0 1.452-.96 2.42-2.4 2.42zM943.4 335.119c-.72 0-1.2-.242-1.68-.726-.96-.969-.96-2.421 0-3.39l19.2-19.364c.96-.968 2.4-.968 3.36 0s.96 2.42 0 3.389l-19.2 19.365c-.48.484-.96.726-1.68.726z"/>
            <path d="M962.6 335.119h-19.2c-1.44 0-2.4-.969-2.4-2.42 0-1.453.96-2.421 2.4-2.421h19.2c1.44 0 2.4.968 2.4 2.42s-.96 2.42-2.4 2.42z"/>
            <g>
                <path d="M943.4 315.754c-.72 0-1.2-.242-1.68-.726-.96-.968-.96-2.42 0-3.389l19.2-19.364c.96-.968 2.4-.968 3.36 0s.96 2.42 0 3.389l-19.2 19.364c-.48.484-.96.726-1.68.726z"/>
                <path d="M962.6 315.754h-19.2c-1.44 0-2.4-.968-2.4-2.42 0-1.453.96-2.42 2.4-2.42h19.2c1.44 0 2.4.967 2.4 2.42 0 1.452-.96 2.42-2.4 2.42z"/>
            </g>
            <g>
                <path d="M943.4 296.39c-.72 0-1.2-.242-1.68-.726-.96-.969-.96-2.421 0-3.39l19.2-19.364c.96-.968 2.4-.968 3.36 0 .96.969.96 2.42 0 3.39l-19.2 19.364c-.48.484-.96.726-1.68.726z"/>
                <path d="M962.6 296.39h-19.2c-1.44 0-2.4-.969-2.4-2.42 0-1.453.96-2.421 2.4-2.421h19.2c1.44 0 2.4.968 2.4 2.42s-.96 2.42-2.4 2.42z"/>
            </g>
            <g>
                <path d="M943.4 277.025c-.72 0-1.2-.242-1.68-.726-.96-.968-.96-2.42 0-3.389l19.2-19.364c.96-.968 2.4-.968 3.36 0s.96 2.42 0 3.389l-19.2 19.364c-.48.484-.96.726-1.68.726z"/>
                <path d="M962.6 277.025h-19.2c-1.44 0-2.4-.968-2.4-2.42 0-1.453.96-2.42 2.4-2.42h19.2c1.44 0 2.4.967 2.4 2.42 0 1.452-.96 2.42-2.4 2.42z"/>
            </g>
            <g>
                <path d="M943.4 257.66c-.72 0-1.2-.241-1.68-.725-.96-.969-.96-2.421 0-3.39l19.2-19.364c.96-.968 2.4-.968 3.36 0 .96.969.96 2.42 0 3.39l-19.2 19.364c-.48.484-.96.726-1.68.726z"/>
                <path d="M962.6 257.66h-19.2c-1.44 0-2.4-.967-2.4-2.42 0-1.452.96-2.42 2.4-2.42h19.2c1.44 0 2.4.968 2.4 2.42 0 1.453-.96 2.42-2.4 2.42z"/>
            </g>
            <g>
                <path d="M943.4 238.296c-.72 0-1.2-.242-1.68-.726-.96-.968-.96-2.42 0-3.389l19.2-19.364c.96-.968 2.4-.968 3.36 0s.96 2.42 0 3.389l-19.2 19.364c-.48.484-.96.726-1.68.726z"/>
                <path d="M962.6 238.296h-19.2c-1.44 0-2.4-.968-2.4-2.42 0-1.453.96-2.42 2.4-2.42h19.2c1.44 0 2.4.967 2.4 2.42 0 1.452-.96 2.42-2.4 2.42z"/>
            </g>
            <g>
                <path d="M943.4 218.932c-.72 0-1.2-.242-1.68-.726-.96-.969-.96-2.421 0-3.39l19.2-19.364c.96-.968 2.4-.968 3.36 0 .96.969.96 2.42 0 3.39l-19.2 19.364c-.48.484-.96.726-1.68.726z"/>
                <path d="M962.6 218.932h-19.2c-1.44 0-2.4-.968-2.4-2.42 0-1.453.96-2.421 2.4-2.421h19.2c1.44 0 2.4.968 2.4 2.42 0 1.453-.96 2.42-2.4 2.42z"/>
            </g>
        </g>
        <path fill="#333" d="M177 453c-1.2 0-2-.974-2-2.434V197.434c0-1.46.8-2.434 2-2.434s2 .974 2 2.434v253.132c0 1.46-.8 2.434-2 2.434zM196 453c-1.2 0-2-.974-2-2.434V197.434c0-1.46.8-2.434 2-2.434s2 .974 2 2.434v253.132c0 1.46-.8 2.434-2 2.434z"/>
        <g fill="#333">
            <path d="M177.4 451.306c-.72 0-1.2-.242-1.68-.727-.96-.968-.96-2.42 0-3.388l19.2-19.365c.96-.968 2.4-.968 3.36 0s.96 2.42 0 3.389l-19.2 19.364c-.48.485-.96.727-1.68.727z"/>
            <path d="M196.6 451.306h-19.2c-1.44 0-2.4-.969-2.4-2.421s.96-2.42 2.4-2.42h19.2c1.44 0 2.4.968 2.4 2.42s-.96 2.42-2.4 2.42zM177.4 431.941c-.72 0-1.2-.242-1.68-.726-.96-.968-.96-2.42 0-3.389l19.2-19.364c.96-.969 2.4-.969 3.36 0 .96.968.96 2.42 0 3.388l-19.2 19.365c-.48.484-.96.726-1.68.726z"/>
            <path d="M196.6 431.941h-19.2c-1.44 0-2.4-.968-2.4-2.42 0-1.453.96-2.421 2.4-2.421h19.2c1.44 0 2.4.968 2.4 2.42 0 1.453-.96 2.421-2.4 2.421zM177.4 412.577c-.72 0-1.2-.242-1.68-.727-.96-.968-.96-2.42 0-3.388l19.2-19.365c.96-.968 2.4-.968 3.36 0s.96 2.42 0 3.389l-19.2 19.364c-.48.485-.96.727-1.68.727z"/>
            <path d="M196.6 412.577h-19.2c-1.44 0-2.4-.969-2.4-2.42 0-1.453.96-2.421 2.4-2.421h19.2c1.44 0 2.4.968 2.4 2.42s-.96 2.42-2.4 2.42zM177.4 393.212c-.72 0-1.2-.242-1.68-.726-.96-.968-.96-2.42 0-3.389l19.2-19.364c.96-.969 2.4-.969 3.36 0 .96.968.96 2.42 0 3.388l-19.2 19.365c-.48.484-.96.726-1.68.726z"/>
            <path d="M196.6 393.212h-19.2c-1.44 0-2.4-.968-2.4-2.42 0-1.453.96-2.421 2.4-2.421h19.2c1.44 0 2.4.968 2.4 2.42 0 1.453-.96 2.421-2.4 2.421zM177.4 373.848c-.72 0-1.2-.242-1.68-.727-.96-.968-.96-2.42 0-3.388l19.2-19.365c.96-.968 2.4-.968 3.36 0s.96 2.42 0 3.389l-19.2 19.364c-.48.485-.96.727-1.68.727z"/>
            <path d="M196.6 373.848h-19.2c-1.44 0-2.4-.969-2.4-2.42 0-1.453.96-2.421 2.4-2.421h19.2c1.44 0 2.4.968 2.4 2.42s-.96 2.42-2.4 2.42zM177.4 354.483c-.72 0-1.2-.242-1.68-.726-.96-.968-.96-2.42 0-3.389l19.2-19.364c.96-.968 2.4-.968 3.36 0s.96 2.42 0 3.389l-19.2 19.364c-.48.484-.96.726-1.68.726z"/>
            <path d="M196.6 354.483h-19.2c-1.44 0-2.4-.968-2.4-2.42 0-1.453.96-2.42 2.4-2.42h19.2c1.44 0 2.4.967 2.4 2.42 0 1.452-.96 2.42-2.4 2.42zM177.4 335.119c-.72 0-1.2-.242-1.68-.726-.96-.969-.96-2.421 0-3.39l19.2-19.364c.96-.968 2.4-.968 3.36 0s.96 2.42 0 3.389l-19.2 19.365c-.48.484-.96.726-1.68.726z"/>
            <path d="M196.6 335.119h-19.2c-1.44 0-2.4-.969-2.4-2.42 0-1.453.96-2.421 2.4-2.421h19.2c1.44 0 2.4.968 2.4 2.42s-.96 2.42-2.4 2.42z"/>
            <g>
                <path d="M177.4 315.754c-.72 0-1.2-.242-1.68-.726-.96-.968-.96-2.42 0-3.389l19.2-19.364c.96-.968 2.4-.968 3.36 0s.96 2.42 0 3.389l-19.2 19.364c-.48.484-.96.726-1.68.726z"/>
                <path d="M196.6 315.754h-19.2c-1.44 0-2.4-.968-2.4-2.42 0-1.453.96-2.42 2.4-2.42h19.2c1.44 0 2.4.967 2.4 2.42 0 1.452-.96 2.42-2.4 2.42z"/>
            </g>
            <g>
                <path d="M177.4 296.39c-.72 0-1.2-.242-1.68-.726-.96-.969-.96-2.421 0-3.39l19.2-19.364c.96-.968 2.4-.968 3.36 0 .96.969.96 2.42 0 3.39l-19.2 19.364c-.48.484-.96.726-1.68.726z"/>
                <path d="M196.6 296.39h-19.2c-1.44 0-2.4-.969-2.4-2.42 0-1.453.96-2.421 2.4-2.421h19.2c1.44 0 2.4.968 2.4 2.42s-.96 2.42-2.4 2.42z"/>
            </g>
            <g>
                <path d="M177.4 277.025c-.72 0-1.2-.242-1.68-.726-.96-.968-.96-2.42 0-3.389l19.2-19.364c.96-.968 2.4-.968 3.36 0s.96 2.42 0 3.389l-19.2 19.364c-.48.484-.96.726-1.68.726z"/>
                <path d="M196.6 277.025h-19.2c-1.44 0-2.4-.968-2.4-2.42 0-1.453.96-2.42 2.4-2.42h19.2c1.44 0 2.4.967 2.4 2.42 0 1.452-.96 2.42-2.4 2.42z"/>
            </g>
            <g>
                <path d="M177.4 257.66c-.72 0-1.2-.241-1.68-.725-.96-.969-.96-2.421 0-3.39l19.2-19.364c.96-.968 2.4-.968 3.36 0 .96.969.96 2.42 0 3.39l-19.2 19.364c-.48.484-.96.726-1.68.726z"/>
                <path d="M196.6 257.66h-19.2c-1.44 0-2.4-.967-2.4-2.42 0-1.452.96-2.42 2.4-2.42h19.2c1.44 0 2.4.968 2.4 2.42 0 1.453-.96 2.42-2.4 2.42z"/>
            </g>
            <g>
                <path d="M177.4 238.296c-.72 0-1.2-.242-1.68-.726-.96-.968-.96-2.42 0-3.389l19.2-19.364c.96-.968 2.4-.968 3.36 0s.96 2.42 0 3.389l-19.2 19.364c-.48.484-.96.726-1.68.726z"/>
                <path d="M196.6 238.296h-19.2c-1.44 0-2.4-.968-2.4-2.42 0-1.453.96-2.42 2.4-2.42h19.2c1.44 0 2.4.967 2.4 2.42 0 1.452-.96 2.42-2.4 2.42z"/>
            </g>
            <g>
                <path d="M177.4 218.932c-.72 0-1.2-.242-1.68-.726-.96-.969-.96-2.421 0-3.39l19.2-19.364c.96-.968 2.4-.968 3.36 0 .96.969.96 2.42 0 3.39l-19.2 19.364c-.48.484-.96.726-1.68.726z"/>
                <path d="M196.6 218.932h-19.2c-1.44 0-2.4-.968-2.4-2.42 0-1.453.96-2.421 2.4-2.421h19.2c1.44 0 2.4.968 2.4 2.42 0 1.453-.96 2.42-2.4 2.42z"/>
            </g>
        </g>
        <path fill="#333" d="M1175.586 161h-164.172c-1.448 0-2.414-.8-2.414-2s.966-2 2.414-2h164.172c1.448 0 2.414.8 2.414 2s-.966 2-2.414 2z"/>
        <g>
            <path fill="#428440" d="M681.857 390.966v-4.828h-9.714v4.828h-9.714v57.93h29.142v-57.93z"/>
            <path fill="#333" d="M691.571 451.31H662.43c-1.458 0-2.429-.965-2.429-2.413v-57.931c0-1.449.971-2.414 2.429-2.414h7.285v-2.414c0-1.448.972-2.414 2.429-2.414h9.714c1.457 0 2.429.966 2.429 2.414v2.414h7.285c1.458 0 2.429.965 2.429 2.414v57.93c0 1.449-.971 2.414-2.429 2.414zm-26.714-4.827h24.286v-53.104h-7.286c-1.457 0-2.428-.965-2.428-2.413v-2.414h-4.858v2.414c0 1.448-.971 2.413-2.428 2.413h-7.286v53.104z"/>
            <g fill="#333">
                <path d="M681.857 451.31h-9.714c-1.457 0-2.429-.965-2.429-2.413 0-1.449.972-2.414 2.429-2.414h9.714c1.457 0 2.429.965 2.429 2.414 0 1.448-.972 2.413-2.429 2.413zM681.857 441.655h-9.714c-1.457 0-2.429-.965-2.429-2.414 0-1.448.972-2.413 2.429-2.413h9.714c1.457 0 2.429.965 2.429 2.413 0 1.449-.972 2.414-2.429 2.414zM681.857 432h-9.714c-1.457 0-2.429-.966-2.429-2.414 0-1.448.972-2.414 2.429-2.414h9.714c1.457 0 2.429.966 2.429 2.414 0 1.448-.972 2.414-2.429 2.414zM681.857 422.345h-9.714c-1.457 0-2.429-.966-2.429-2.414 0-1.448.972-2.414 2.429-2.414h9.714c1.457 0 2.429.966 2.429 2.414 0 1.448-.972 2.414-2.429 2.414zM681.857 412.69h-9.714c-1.457 0-2.429-.966-2.429-2.414 0-1.448.972-2.414 2.429-2.414h9.714c1.457 0 2.429.966 2.429 2.414 0 1.448-.972 2.414-2.429 2.414zM681.857 403.034h-9.714c-1.457 0-2.429-.965-2.429-2.413 0-1.449.972-2.414 2.429-2.414h9.714c1.457 0 2.429.965 2.429 2.414 0 1.448-.972 2.413-2.429 2.413z"/>
            </g>
        </g>
        <path fill="#333" d="M1175.586 402h-164.172c-1.448 0-2.414-.8-2.414-2s.966-2 2.414-2h164.172c1.448 0 2.414.8 2.414 2s-.966 2-2.414 2zM865.59 451H711.41c-1.446 0-2.41-.968-2.41-2.42V332.42c0-1.452.964-2.42 2.41-2.42h154.18c1.446 0 2.41.968 2.41 2.42v116.16c0 1.452-.964 2.42-2.41 2.42zm-151.772-4.84h149.364V334.84H713.818v111.32z"/>
        <path fill="#333" d="M865.59 344H711.41c-1.446 0-2.41-.8-2.41-2s.964-2 2.41-2h154.18c1.446 0 2.41.8 2.41 2s-.964 2-2.41 2zM738.667 431h-9.334c-1.4 0-2.333-.8-2.333-2s.933-2 2.333-2h9.334c1.4 0 2.333.8 2.333 2s-.933 2-2.333 2zM778.571 431H749.43c-1.458 0-2.429-.8-2.429-2s.971-2 2.429-2h29.142c1.458 0 2.429.8 2.429 2s-.971 2-2.429 2zM846.59 364h-48.18c-1.446 0-2.41-.8-2.41-2s.964-2 2.41-2h48.18c1.446 0 2.41.8 2.41 2s-.964 2-2.41 2zM827.571 373H798.43c-1.458 0-2.429-.8-2.429-2s.971-2 2.429-2h29.142c1.458 0 2.429.8 2.429 2s-.971 2-2.429 2zM846.59 383h-48.18c-1.446 0-2.41-.8-2.41-2s.964-2 2.41-2h48.18c1.446 0 2.41.8 2.41 2s-.964 2-2.41 2zM827.571 393H798.43c-1.458 0-2.429-.8-2.429-2s.971-2 2.429-2h29.142c1.458 0 2.429.8 2.429 2s-.971 2-2.429 2zM846.59 402h-48.18c-1.446 0-2.41-.8-2.41-2s.964-2 2.41-2h48.18c1.446 0 2.41.8 2.41 2s-.964 2-2.41 2zM827.571 412H798.43c-1.458 0-2.429-.8-2.429-2s.971-2 2.429-2h29.142c1.458 0 2.429.8 2.429 2s-.971 2-2.429 2zM846.59 431h-48.18c-1.446 0-2.41-.8-2.41-2s.964-2 2.41-2h48.18c1.446 0 2.41.8 2.41 2s-.964 2-2.41 2z"/>
        <g>
            <path fill="#FFF" d="M754.494 391.042a19.124 19.124 0 0 0-17.59 11.564c4.337 4.819 10.602 7.71 17.59 7.71 6.988 0 13.253-2.891 17.59-7.71a19.124 19.124 0 0 0-17.59-11.564z"/>
            <path fill="#333" d="M754.494 412.725c-7.229 0-14.457-3.132-19.518-8.432-.722-.723-.722-1.687-.481-2.65 3.373-7.95 11.325-13.01 19.758-13.01 8.434 0 16.386 5.06 19.76 13.01.481.963.24 1.927-.483 2.65-4.578 5.3-11.807 8.432-19.036 8.432zm-14.698-10.6c4.096 3.854 9.156 5.782 14.698 5.782s10.603-1.928 14.699-5.783c-2.892-5.3-8.675-8.673-14.699-8.673-6.265 0-11.807 3.373-14.698 8.673z"/>
            <path fill="#333" d="M754.494 412.725c-7.229 0-14.457-3.132-19.518-8.432-.722-.723-.722-1.687-.481-2.65 3.373-7.95 11.325-13.01 19.758-13.01 8.434 0 16.386 5.06 19.76 13.01.481.963.24 1.927-.483 2.65-4.578 5.3-11.807 8.432-19.036 8.432zm-14.698-10.6c4.096 3.854 9.156 5.782 14.698 5.782s10.603-1.928 14.699-5.783c-2.892-5.3-8.675-8.673-14.699-8.673-6.265 0-11.807 3.373-14.698 8.673z"/>
            <path fill="#333" d="M772.084 405.015c-.481 0-1.204-.24-1.686-.722a2.58 2.58 0 0 1-.241-3.373c3.855-4.096 5.783-9.155 5.783-14.696a21.594 21.594 0 0 0-21.687-21.683 21.594 21.594 0 0 0-21.686 21.683c0 5.541 2.168 10.6 5.783 14.696.964.964.964 2.41-.241 3.373-.964.963-2.41.963-3.374-.241-4.578-4.819-6.987-11.323-6.987-18.07a26.427 26.427 0 0 1 26.505-26.5 26.427 26.427 0 0 1 26.506 26.5c0 6.747-2.41 13.01-6.988 18.07-.24.723-.964.963-1.687.963z"/>
        </g>
        <g transform="translate(742 369)">
            <ellipse cx="12" cy="13.223" fill="#FFF" rx="9.6" ry="9.98"/>
            <path fill="#333" d="M12 25.698c-6.72 0-12-5.489-12-12.475S5.28.748 12 .748s12 5.49 12 12.475c0 6.986-5.28 12.475-12 12.475zm0-19.96c-4.08 0-7.2 3.244-7.2 7.485 0 4.242 3.12 7.485 7.2 7.485s7.2-3.243 7.2-7.485c0-4.241-3.12-7.485-7.2-7.485z"/>
        </g>
        <path fill="#333" d="M477.58 451H216.42c-1.452 0-2.42-.967-2.42-2.418V129.418c0-1.45.968-2.418 2.42-2.418h261.16c1.452 0 2.42.967 2.42 2.418v319.164c0 1.45-.968 2.418-2.42 2.418zm-258.74-4.836h256.32V131.836H218.84v314.328z"/>
        <path fill="#333" d="M477.58 199H216.42c-1.452 0-2.42-.8-2.42-2s.968-2 2.42-2h261.16c1.452 0 2.42.8 2.42 2s-.968 2-2.42 2zM477.58 141H216.42c-1.452 0-2.42-.8-2.42-2s.968-2 2.42-2h261.16c1.452 0 2.42.8 2.42 2s-.968 2-2.42 2zM477.58 276H216.42c-1.452 0-2.42-.8-2.42-2s.968-2 2.42-2h261.16c1.452 0 2.42.8 2.42 2s-.968 2-2.42 2zM380.567 161h-68.134c-1.46 0-2.433-.8-2.433-2s.973-2 2.433-2h68.134c1.46 0 2.433.8 2.433 2s-.973 2-2.433 2zM410.574 169H284.426c-1.456 0-2.426-.8-2.426-2s.97-2 2.426-2h126.148c1.456 0 2.426.8 2.426 2s-.97 2-2.426 2zM380.567 179h-68.134c-1.46 0-2.433-.8-2.433-2s.973-2 2.433-2h68.134c1.46 0 2.433.8 2.433 2s-.973 2-2.433 2z"/>
        <path fill="#333" d="M331.424 278c-.97 0-1.94-.489-2.182-1.466l-29.09-78.204c-.485-1.222.242-2.688 1.454-3.177 1.212-.489 2.667.244 3.152 1.466l29.09 78.204c.485 1.222-.242 2.688-1.454 3.177h-.97zM439.571 219H342.43c-1.458 0-2.429-.933-2.429-2.333v-9.334c0-1.4.971-2.333 2.429-2.333h97.142c1.458 0 2.429.933 2.429 2.333v9.334c0 1.4-.971 2.333-2.429 2.333zm-94.714-4.667h92.286v-4.666h-92.286v4.666zM381.556 227h-39.112c-1.466 0-2.444-.8-2.444-2s.978-2 2.444-2h39.112c1.466 0 2.444.8 2.444 2s-.978 2-2.444 2zM361.6 237h-19.2c-1.44 0-2.4-.8-2.4-2s.96-2 2.4-2h19.2c1.44 0 2.4.8 2.4 2s-.96 2-2.4 2zM439.59 227h-48.18c-1.446 0-2.41-.8-2.41-2s.964-2 2.41-2h48.18c1.446 0 2.41.8 2.41 2s-.964 2-2.41 2zM438.571 267H409.43c-1.458 0-2.429-.933-2.429-2.333v-9.334c0-1.4.971-2.333 2.429-2.333h29.142c1.458 0 2.429.933 2.429 2.333v9.334c0 1.4-.971 2.333-2.429 2.333zm-26.714-4.667h24.286v-4.666h-24.286v4.666zM274 257c-12.222 0-22-9.778-22-22s9.778-22 22-22 22 9.778 22 22-9.778 22-22 22zm0-39.111c-9.533 0-17.111 7.578-17.111 17.111 0 9.533 7.578 17.111 17.111 17.111 9.533 0 17.111-7.578 17.111-17.111 0-9.533-7.578-17.111-17.111-17.111zM293.556 336h-39.112c-1.466 0-2.444-.978-2.444-2.444v-39.112c0-1.466.978-2.444 2.444-2.444h39.112c1.466 0 2.444.978 2.444 2.444v39.112c0 1.466-.978 2.444-2.444 2.444zm-36.667-4.889h34.222V296.89H256.89v34.222zM341.556 336h-39.112c-1.466 0-2.444-.978-2.444-2.444v-39.112c0-1.466.978-2.444 2.444-2.444h39.112c1.466 0 2.444.978 2.444 2.444v39.112c0 1.466-.978 2.444-2.444 2.444zm-36.667-4.889h34.222V296.89H304.89v34.222zM388.111 333.556c0-1.467.978-2.445 2.445-2.445 1.222 0 2.444.978 2.444 2.445 0 1.222-1.222 2.444-2.444 2.444-1.467 0-2.445-.978-2.445-2.444zm-9.778 0c0-1.467.978-2.445 2.445-2.445 1.222 0 2.444.978 2.444 2.445 0 1.222-1.222 2.444-2.444 2.444-1.467 0-2.445-.978-2.445-2.444zm-9.777 0c0-1.467.977-2.445 2.444-2.445 1.222 0 2.444.978 2.444 2.445 0 1.222-1.222 2.444-2.444 2.444-1.467 0-2.444-.978-2.444-2.444zm-9.778 0c0-1.467.978-2.445 2.444-2.445 1.222 0 2.445.978 2.445 2.445 0 1.222-1.223 2.444-2.445 2.444-1.466 0-2.444-.978-2.444-2.444zm-9.778 0c0-1.467.978-2.445 2.444-2.445 1.223 0 2.445.978 2.445 2.445 0 1.222-1.222 2.444-2.445 2.444-1.466 0-2.444-.978-2.444-2.444zm39.111-9.778c0-1.467.978-2.445 2.445-2.445 1.222 0 2.444.978 2.444 2.445 0 1.222-1.222 2.444-2.444 2.444-1.467 0-2.445-.978-2.445-2.444zm-39.111 0c0-1.467.978-2.445 2.444-2.445 1.223 0 2.445.978 2.445 2.445 0 1.222-1.222 2.444-2.445 2.444-1.466 0-2.444-.978-2.444-2.444zM388.111 314c0-1.467.978-2.444 2.445-2.444 1.222 0 2.444.977 2.444 2.444 0 1.222-1.222 2.444-2.444 2.444-1.467 0-2.445-.977-2.445-2.444zM349 314c0-1.467.978-2.444 2.444-2.444 1.223 0 2.445.977 2.445 2.444 0 1.222-1.222 2.444-2.445 2.444-1.466 0-2.444-.977-2.444-2.444zm39.111-9.778c0-1.466.978-2.444 2.445-2.444 1.222 0 2.444.978 2.444 2.444 0 1.222-1.222 2.445-2.444 2.445-1.467 0-2.445-.978-2.445-2.445zm-39.111 0c0-1.466.978-2.444 2.444-2.444 1.223 0 2.445.978 2.445 2.444 0 1.222-1.222 2.445-2.445 2.445-1.466 0-2.444-.978-2.444-2.445zm39.111-9.778c0-1.466.978-2.444 2.445-2.444 1.222 0 2.444.978 2.444 2.444 0 1.223-1.222 2.445-2.444 2.445-1.467 0-2.445-.978-2.445-2.445zm-9.778 0c0-1.466.978-2.444 2.445-2.444 1.222 0 2.444.978 2.444 2.444 0 1.223-1.222 2.445-2.444 2.445-1.467 0-2.445-.978-2.445-2.445zm-9.777 0c0-1.466.977-2.444 2.444-2.444 1.222 0 2.444.978 2.444 2.444 0 1.223-1.222 2.445-2.444 2.445-1.467 0-2.444-.978-2.444-2.445zm-9.778 0c0-1.466.978-2.444 2.444-2.444 1.222 0 2.445.978 2.445 2.444 0 1.223-1.223 2.445-2.445 2.445-1.466 0-2.444-.978-2.444-2.445zm-9.778 0c0-1.466.978-2.444 2.444-2.444 1.223 0 2.445.978 2.445 2.444 0 1.223-1.222 2.445-2.445 2.445-1.466 0-2.444-.978-2.444-2.445zM438.556 336h-39.112c-1.466 0-2.444-.978-2.444-2.444v-39.112c0-1.466.978-2.444 2.444-2.444h39.112c1.466 0 2.444.978 2.444 2.444v39.112c0 1.466-.978 2.444-2.444 2.444zm-36.667-4.889h34.222V296.89H401.89v34.222zM291.111 401.556c0-1.467.978-2.445 2.445-2.445 1.222 0 2.444.978 2.444 2.445 0 1.222-1.222 2.444-2.444 2.444-1.467 0-2.445-.978-2.445-2.444zm-9.778 0c0-1.467.978-2.445 2.445-2.445 1.222 0 2.444.978 2.444 2.445 0 1.222-1.222 2.444-2.444 2.444-1.467 0-2.445-.978-2.445-2.444zm-9.777 0c0-1.467.977-2.445 2.444-2.445 1.222 0 2.444.978 2.444 2.445 0 1.222-1.222 2.444-2.444 2.444-1.467 0-2.444-.978-2.444-2.444zm-9.778 0c0-1.467.978-2.445 2.444-2.445 1.222 0 2.445.978 2.445 2.445 0 1.222-1.223 2.444-2.445 2.444-1.466 0-2.444-.978-2.444-2.444zm-9.778 0c0-1.467.978-2.445 2.444-2.445 1.223 0 2.445.978 2.445 2.445 0 1.222-1.222 2.444-2.445 2.444-1.466 0-2.444-.978-2.444-2.444zm39.111-9.778c0-1.467.978-2.445 2.445-2.445 1.222 0 2.444.978 2.444 2.445 0 1.222-1.222 2.444-2.444 2.444-1.467 0-2.445-.978-2.445-2.444zm-39.111 0c0-1.467.978-2.445 2.444-2.445 1.223 0 2.445.978 2.445 2.445 0 1.222-1.222 2.444-2.445 2.444-1.466 0-2.444-.978-2.444-2.444zM291.111 382c0-1.467.978-2.444 2.445-2.444 1.222 0 2.444.977 2.444 2.444 0 1.222-1.222 2.444-2.444 2.444-1.467 0-2.445-.977-2.445-2.444zM252 382c0-1.467.978-2.444 2.444-2.444 1.223 0 2.445.977 2.445 2.444 0 1.222-1.222 2.444-2.445 2.444-1.466 0-2.444-.977-2.444-2.444zm39.111-9.778c0-1.466.978-2.444 2.445-2.444 1.222 0 2.444.978 2.444 2.444 0 1.222-1.222 2.445-2.444 2.445-1.467 0-2.445-.978-2.445-2.445zm-39.111 0c0-1.466.978-2.444 2.444-2.444 1.223 0 2.445.978 2.445 2.444 0 1.222-1.222 2.445-2.445 2.445-1.466 0-2.444-.978-2.444-2.445zm39.111-9.778c0-1.466.978-2.444 2.445-2.444 1.222 0 2.444.978 2.444 2.444 0 1.223-1.222 2.445-2.444 2.445-1.467 0-2.445-.978-2.445-2.445zm-9.778 0c0-1.466.978-2.444 2.445-2.444 1.222 0 2.444.978 2.444 2.444 0 1.223-1.222 2.445-2.444 2.445-1.467 0-2.445-.978-2.445-2.445zm-9.777 0c0-1.466.977-2.444 2.444-2.444 1.222 0 2.444.978 2.444 2.444 0 1.223-1.222 2.445-2.444 2.445-1.467 0-2.444-.978-2.444-2.445zm-9.778 0c0-1.466.978-2.444 2.444-2.444 1.222 0 2.445.978 2.445 2.444 0 1.223-1.223 2.445-2.445 2.445-1.466 0-2.444-.978-2.444-2.445zm-9.778 0c0-1.466.978-2.444 2.444-2.444 1.223 0 2.445.978 2.445 2.444 0 1.223-1.222 2.445-2.445 2.445-1.466 0-2.444-.978-2.444-2.445zM341.556 404h-39.112c-1.466 0-2.444-.978-2.444-2.444v-39.112c0-1.466.978-2.444 2.444-2.444h39.112c1.466 0 2.444.978 2.444 2.444v39.112c0 1.466-.978 2.444-2.444 2.444zm-36.667-4.889h34.222V364.89H304.89v34.222zM390.556 404h-39.112c-1.466 0-2.444-.978-2.444-2.444v-39.112c0-1.466.978-2.444 2.444-2.444h39.112c1.466 0 2.444.978 2.444 2.444v39.112c0 1.466-.978 2.444-2.444 2.444zm-36.667-4.889h34.222V364.89H353.89v34.222zM436.111 401.556c0-1.467.978-2.445 2.445-2.445 1.222 0 2.444.978 2.444 2.445 0 1.222-1.222 2.444-2.444 2.444-1.467 0-2.445-.978-2.445-2.444zm-9.778 0c0-1.467.978-2.445 2.445-2.445 1.222 0 2.444.978 2.444 2.445 0 1.222-1.222 2.444-2.444 2.444-1.467 0-2.445-.978-2.445-2.444zm-9.777 0c0-1.467.977-2.445 2.444-2.445 1.222 0 2.444.978 2.444 2.445 0 1.222-1.222 2.444-2.444 2.444-1.467 0-2.444-.978-2.444-2.444zm-9.778 0c0-1.467.978-2.445 2.444-2.445 1.222 0 2.445.978 2.445 2.445 0 1.222-1.223 2.444-2.445 2.444-1.466 0-2.444-.978-2.444-2.444zm-9.778 0c0-1.467.978-2.445 2.444-2.445 1.223 0 2.445.978 2.445 2.445 0 1.222-1.222 2.444-2.445 2.444-1.466 0-2.444-.978-2.444-2.444zm39.111-9.778c0-1.467.978-2.445 2.445-2.445 1.222 0 2.444.978 2.444 2.445 0 1.222-1.222 2.444-2.444 2.444-1.467 0-2.445-.978-2.445-2.444zm-39.111 0c0-1.467.978-2.445 2.444-2.445 1.223 0 2.445.978 2.445 2.445 0 1.222-1.222 2.444-2.445 2.444-1.466 0-2.444-.978-2.444-2.444zM436.111 382c0-1.467.978-2.444 2.445-2.444 1.222 0 2.444.977 2.444 2.444 0 1.222-1.222 2.444-2.444 2.444-1.467 0-2.445-.977-2.445-2.444zM397 382c0-1.467.978-2.444 2.444-2.444 1.223 0 2.445.977 2.445 2.444 0 1.222-1.222 2.444-2.445 2.444-1.466 0-2.444-.977-2.444-2.444zm39.111-9.778c0-1.466.978-2.444 2.445-2.444 1.222 0 2.444.978 2.444 2.444 0 1.222-1.222 2.445-2.444 2.445-1.467 0-2.445-.978-2.445-2.445zm-39.111 0c0-1.466.978-2.444 2.444-2.444 1.223 0 2.445.978 2.445 2.444 0 1.222-1.222 2.445-2.445 2.445-1.466 0-2.444-.978-2.444-2.445zm39.111-9.778c0-1.466.978-2.444 2.445-2.444 1.222 0 2.444.978 2.444 2.444 0 1.223-1.222 2.445-2.444 2.445-1.467 0-2.445-.978-2.445-2.445zm-9.778 0c0-1.466.978-2.444 2.445-2.444 1.222 0 2.444.978 2.444 2.444 0 1.223-1.222 2.445-2.444 2.445-1.467 0-2.445-.978-2.445-2.445zm-9.777 0c0-1.466.977-2.444 2.444-2.444 1.222 0 2.444.978 2.444 2.444 0 1.223-1.222 2.445-2.444 2.445-1.467 0-2.444-.978-2.444-2.445zm-9.778 0c0-1.466.978-2.444 2.444-2.444 1.222 0 2.445.978 2.445 2.444 0 1.223-1.223 2.445-2.445 2.445-1.466 0-2.444-.978-2.444-2.445zm-9.778 0c0-1.466.978-2.444 2.444-2.444 1.223 0 2.445.978 2.445 2.444 0 1.223-1.222 2.445-2.445 2.445-1.466 0-2.444-.978-2.444-2.445zM283.571 344H254.43c-1.458 0-2.429-.8-2.429-2s.971-2 2.429-2h29.142c1.458 0 2.429.8 2.429 2s-.971 2-2.429 2zM311.667 344h-9.334c-1.4 0-2.333-.8-2.333-2s.933-2 2.333-2h9.334c1.4 0 2.333.8 2.333 2s-.933 2-2.333 2zM331.667 344h-9.334c-1.4 0-2.333-.8-2.333-2s.933-2 2.333-2h9.334c1.4 0 2.333.8 2.333 2s-.933 2-2.333 2zM370.667 344h-16.334c-1.4 0-2.333-.8-2.333-2s.933-2 2.333-2h16.334c1.4 0 2.333.8 2.333 2s-.933 2-2.333 2zM408.667 344h-9.334c-1.4 0-2.333-.8-2.333-2s.933-2 2.333-2h9.334c1.4 0 2.333.8 2.333 2s-.933 2-2.333 2zM438.6 344h-19.2c-1.44 0-2.4-.8-2.4-2s.96-2 2.4-2h19.2c1.44 0 2.4.8 2.4 2s-.96 2-2.4 2zM273.6 412h-19.2c-1.44 0-2.4-.8-2.4-2s.96-2 2.4-2h19.2c1.44 0 2.4.8 2.4 2s-.96 2-2.4 2zM331.571 412H302.43c-1.458 0-2.429-.8-2.429-2s.971-2 2.429-2h29.142c1.458 0 2.429.8 2.429 2s-.971 2-2.429 2zM360.667 412h-9.334c-1.4 0-2.333-.8-2.333-2s.933-2 2.333-2h9.334c1.4 0 2.333.8 2.333 2s-.933 2-2.333 2zM380.667 412h-9.334c-1.4 0-2.333-.8-2.333-2s.933-2 2.333-2h9.334c1.4 0 2.333.8 2.333 2s-.933 2-2.333 2zM418.6 412h-19.2c-1.44 0-2.4-.8-2.4-2s.96-2 2.4-2h19.2c1.44 0 2.4.8 2.4 2s-.96 2-2.4 2zM477.582 431H216.418c-1.45 0-2.418-.8-2.418-2s.967-2 2.418-2h261.164c1.45 0 2.418.8 2.418 2s-.967 2-2.418 2z"/>
        <g fill="#333">
            <path d="M273.808 442.75h-19.385c-1.454 0-2.423-1-2.423-2.5s.97-2.5 2.423-2.5h19.385c1.454 0 2.423 1 2.423 2.5s-.97 2.5-2.423 2.5zM438.577 442.75h-9.692c-1.454 0-2.423-1-2.423-2.5s.969-2.5 2.423-2.5h9.692c1.454 0 2.423 1 2.423 2.5s-.97 2.5-2.423 2.5zM409.5 442.75h-9.692c-1.454 0-2.423-1-2.423-2.5s.969-2.5 2.423-2.5h9.692c1.454 0 2.423 1 2.423 2.5s-.97 2.5-2.423 2.5zM380.423 442.75h-9.692c-1.454 0-2.423-1-2.423-2.5s.969-2.5 2.423-2.5h9.692c1.454 0 2.423 1 2.423 2.5s-.97 2.5-2.423 2.5zM322.27 442.75h-9.693c-1.454 0-2.423-1-2.423-2.5s.97-2.5 2.423-2.5h9.692c1.454 0 2.423 1 2.423 2.5s-.969 2.5-2.423 2.5zM351.346 442.75h-9.692c-1.454 0-2.423-1-2.423-2.5s.969-2.5 2.423-2.5h9.692c1.454 0 2.423 1 2.423 2.5s-.969 2.5-2.423 2.5z"/>
        </g>
        <path fill="#333" d="M1353.286 452h-14.572c-5.343 0-9.714-4.371-9.714-9.714v-14.572c0-5.343 4.371-9.714 9.714-9.714h14.572c5.343 0 9.714 4.371 9.714 9.714v14.572c0 5.343-4.371 9.714-9.714 9.714zm-14.572-29.143a4.871 4.871 0 0 0-4.857 4.857v14.572a4.871 4.871 0 0 0 4.857 4.857h14.572a4.871 4.871 0 0 0 4.857-4.857v-14.572a4.871 4.871 0 0 0-4.857-4.857h-14.572z"/>
    </g>
</svg>
