<?xml version="1.0" standalone="no"?>
<!DOCTYPE svg PUBLIC "-//W3C//DTD SVG 20010904//EN"
 "http://www.w3.org/TR/2001/REC-SVG-20010904/DTD/svg10.dtd">
<svg version="1.0" xmlns="http://www.w3.org/2000/svg"
 width="260.000000pt" height="260.000000pt" viewBox="0 0 260.000000 260.000000"
 preserveAspectRatio="xMidYMid meet">
<metadata>
Created by potrace 1.11, written by Peter Selinger 2001-2013
</metadata>
<g transform="translate(0.000000,260.000000) scale(0.100000,-0.100000)"
fill="#000000" stroke="none">
<path d="M0 1300 l0 -1300 1300 0 1300 0 0 1300 0 1300 -1300 0 -1300 0 0
-1300z m865 1180 c-3 -5 -11 -10 -16 -10 -6 0 -7 5 -4 10 3 6 11 10 16 10 6 0
7 -4 4 -10z m-59 -19 c-3 -5 -15 -7 -26 -4 -28 7 -25 13 6 13 14 0 23 -4 20
-9z m-246 -125 c0 -2 -8 -10 -17 -17 -16 -13 -17 -12 -4 4 13 16 21 21 21 13z
m560 -6 c0 -5 -4 -10 -10 -10 -5 0 -10 5 -10 10 0 6 5 10 10 10 6 0 10 -4 10
-10z m-80 -20 c0 -5 -4 -10 -10 -10 -5 0 -10 5 -10 10 0 6 5 10 10 10 6 0 10
-4 10 -10z m874 -84 c-3 -9 -10 -13 -15 -10 -5 3 -3 11 4 19 15 16 19 13 11
-9z m-917 -73 c19 -9 53 -41 76 -72 65 -86 79 -102 119 -127 34 -22 37 -28 33
-59 -2 -20 -7 -41 -11 -48 -5 -8 -2 -8 9 1 9 8 19 22 22 33 4 10 11 19 16 19
15 0 79 -107 117 -194 38 -88 36 -104 -14 -118 -56 -17 -304 -29 -304 -15 0 5
-17 6 -37 3 -21 -3 -90 -11 -153 -17 -65 -7 -122 -18 -131 -26 -8 -7 -27 -13
-41 -13 -14 0 -42 -7 -61 -15 -49 -20 -60 -19 -74 10 -12 27 -7 153 8 192 18
47 60 12 78 -64 7 -31 9 -33 10 -12 1 35 -22 90 -48 113 -25 23 -27 64 -7 156
24 114 40 160 53 160 7 0 13 7 13 15 0 17 31 31 100 46 25 5 59 18 75 29 38
23 106 25 152 3z m152 -739 c70 -5 99 -12 126 -30 26 -17 26 -18 7 -25 -12 -5
-88 -13 -169 -19 -81 -6 -175 -15 -208 -21 -33 -5 -78 -9 -99 -9 -38 0 -39 1
-22 19 10 11 31 25 47 31 16 7 29 15 29 19 0 3 10 7 23 8 12 1 42 6 67 12 25
5 64 10 87 11 23 0 45 5 48 10 4 6 11 7 17 4 6 -4 27 -8 47 -10z m-49 -135 c0
-7 9 -9 21 -6 39 10 5 -11 -44 -27 -26 -9 -80 -16 -120 -16 -106 0 -209 33
-114 37 64 2 191 15 196 19 10 9 61 3 61 -7z m210 -131 c-10 -97 -10 -122 4
-173 8 -33 17 -96 21 -140 5 -79 57 -377 91 -525 27 -118 27 -121 -28 -142
-59 -22 -140 -34 -278 -43 -185 -12 -137 -25 88 -25 154 0 212 -3 212 -12 0
-6 9 -3 21 8 17 16 22 16 29 4 6 -8 10 -18 10 -22 0 -10 -82 -21 -250 -34 -36
-3 -103 -8 -150 -12 -99 -8 -160 -5 -160 9 0 12 -62 68 -76 69 -6 0 -14 93
-22 263 -11 227 -25 372 -49 506 -3 18 -2 32 3 30 5 -2 70 -35 144 -73 133
-69 136 -70 211 -69 188 0 169 33 -39 63 -79 11 -163 40 -260 89 -55 28 -62
35 -62 61 0 16 -14 63 -30 105 -28 70 -36 105 -26 105 3 0 20 -9 38 -19 106
-62 282 -68 398 -14 36 16 88 48 115 71 28 22 52 39 54 37 2 -2 -2 -55 -9
-117z m211 59 c-1 -12 -15 -9 -19 4 -3 6 1 10 8 8 6 -3 11 -8 11 -12z m-69
-59 c-7 -7 -12 -8 -12 -2 0 14 12 26 19 19 2 -3 -1 -11 -7 -17z m-1061 -33
c-48 -28 -55 -30 -45 -14 7 11 62 38 79 38 6 1 -10 -10 -34 -24z m159 4 c0 -5
-4 -9 -10 -9 -5 0 -10 7 -10 16 0 8 5 12 10 9 6 -3 10 -10 10 -16z m-236 -34
c-9 -14 -20 -22 -25 -19 -9 5 -5 17 14 41 17 23 27 2 11 -22z m312 -22 c-7 -7
-26 7 -26 19 0 6 6 6 15 -2 9 -7 13 -15 11 -17z m-343 -29 c-4 -10 -9 -12 -15
-6 -12 12 -1 35 12 27 5 -3 6 -13 3 -21z m1113 -21 c-11 -11 -17 4 -9 23 7 18
8 18 11 1 2 -10 1 -21 -2 -24z m-736 11 c0 -8 -4 -12 -10 -9 -5 3 -10 10 -10
16 0 5 5 9 10 9 6 0 10 -7 10 -16z m34 -50 c10 -25 -1 -29 -14 -5 -6 12 -7 21
-1 21 5 0 12 -7 15 -16z m687 -21 c-9 -16 -10 -14 -11 12 0 21 3 26 11 18 8
-8 8 -16 0 -30z m-651 -55 c0 -5 -4 -8 -10 -8 -5 0 -10 10 -10 23 0 18 2 19
10 7 5 -8 10 -18 10 -22z m647 -15 c-3 -10 -5 -4 -5 12 0 17 2 24 5 18 2 -7 2
-21 0 -30z m-633 -55 c-5 -8 -10 -5 -14 8 -10 25 0 41 12 20 5 -9 6 -21 2 -28z
m646 -3 c0 -8 -4 -17 -10 -20 -6 -4 -10 5 -10 20 0 15 4 24 10 20 6 -3 10 -12
10 -20z m-630 -51 c0 -8 -4 -12 -10 -9 -5 3 -10 13 -10 21 0 8 5 12 10 9 6 -3
10 -13 10 -21z m1456 1 c12 -8 59 -56 105 -107 46 -51 114 -124 152 -163 37
-40 67 -79 67 -88 0 -22 -39 -47 -73 -47 -45 0 -85 27 -204 137 -75 70 -114
114 -118 133 -9 40 -29 54 -69 47 -49 -8 -85 -34 -101 -74 -13 -31 -13 -38 1
-65 9 -16 17 -42 19 -57 2 -14 4 -26 5 -26 0 0 3 -19 5 -43 2 -23 13 -59 24
-78 12 -19 21 -41 21 -47 0 -7 23 -36 51 -66 51 -55 69 -81 69 -100 0 -20 -37
4 -110 69 -74 67 -113 90 -189 110 -26 7 -57 25 -74 43 -27 29 -29 36 -25 92
7 105 74 208 187 284 101 69 195 86 257 46z m-829 -32 c-3 -10 -5 -4 -5 12 0
17 2 24 5 18 2 -7 2 -21 0 -30z m-617 -39 c0 -8 -4 -14 -10 -14 -5 0 -10 9
-10 21 0 11 5 17 10 14 6 -3 10 -13 10 -21z m640 -30 c0 -8 -4 -14 -10 -14 -5
0 -10 9 -10 21 0 11 5 17 10 14 6 -3 10 -13 10 -21z m-637 -29 c4 -8 2 -17 -3
-20 -6 -4 -10 3 -10 14 0 25 6 27 13 6z m-423 -68 c36 -25 50 -64 50 -138 0
-64 -2 -70 -27 -86 -16 -9 -34 -23 -40 -32 -7 -8 -15 -13 -17 -10 -4 5 -26
268 -26 314 l0 30 19 -31 c11 -18 29 -39 41 -47z m1070 27 c0 -8 -4 -14 -10
-14 -5 0 -10 9 -10 21 0 11 5 17 10 14 6 -3 10 -13 10 -21z m-640 -34 c0 -11
-4 -20 -10 -20 -5 0 -10 9 -10 20 0 11 5 20 10 20 6 0 10 -9 10 -20z m650 -31
c0 -11 -4 -17 -10 -14 -5 3 -10 13 -10 21 0 8 5 14 10 14 6 0 10 -9 10 -21z
m-653 -51 c-3 -7 -5 -2 -5 12 0 14 2 19 5 13 2 -7 2 -19 0 -25z m667 -14 c9
-22 -3 -32 -14 -14 -12 19 -12 30 -1 30 5 0 12 -7 15 -16z m-654 -50 c0 -8 -4
-14 -10 -14 -5 0 -10 9 -10 21 0 11 5 17 10 14 6 -3 10 -13 10 -21z m670 -37
c0 -18 -2 -19 -10 -7 -13 20 -13 43 0 35 6 -3 10 -16 10 -28z m-670 -34 c-1
-24 -2 -26 -11 -10 -5 9 -7 22 -4 27 10 17 15 11 15 -17z m690 -41 c0 -7 -4
-10 -10 -7 -5 3 -10 16 -10 28 0 18 2 19 10 7 5 -8 10 -21 10 -28z m-693 -39
c-3 -10 -5 -4 -5 12 0 17 2 24 5 18 2 -7 2 -21 0 -30z m700 -25 c-3 -8 -6 -5
-6 6 -1 11 2 17 5 13 3 -3 4 -12 1 -19z m-687 -50 c0 -5 -4 -8 -10 -8 -5 0
-10 10 -10 23 0 18 2 19 10 7 5 -8 10 -18 10 -22z m-7 -85 c6 -34 3 -52 -7
-42 -10 10 -17 79 -8 79 5 0 12 -17 15 -37z m90 -70 c26 -14 29 -18 13 -21
-10 -2 -28 5 -39 17 -26 25 -17 27 26 4z m-65 -19 c-4 -3 -17 -2 -30 2 -22 7
-22 7 -3 14 20 8 44 -4 33 -16z"/>
<path d="M1001 2021 c-7 -5 -10 -14 -6 -20 5 -9 10 -9 21 0 26 22 14 38 -15
20z"/>
<path d="M958 1985 c-3 -3 -22 -6 -43 -7 l-38 -1 27 -20 c18 -12 26 -28 26
-47 0 -30 30 -60 61 -60 27 0 52 36 47 70 -3 22 -1 30 11 31 12 0 11 3 -4 8
-21 8 -37 -2 -48 -33 -7 -18 -9 -18 -24 -3 -16 16 -16 18 1 30 11 8 16 19 12
25 -8 13 -19 15 -28 7z"/>
<path d="M654 1970 c-33 -13 -43 -34 -13 -27 14 4 35 4 47 0 23 -6 23 -6 -10
-35 -18 -16 -25 -27 -15 -24 12 4 17 0 17 -13 0 -10 8 -29 18 -41 14 -18 25
-21 45 -16 28 7 41 34 38 82 -1 20 6 37 19 49 11 10 20 23 20 29 0 6 -4 5 -9
-3 -8 -13 -62 -12 -116 3 -11 3 -30 1 -41 -4z m92 -71 c10 -17 -13 -36 -27
-22 -12 12 -4 33 11 33 5 0 12 -5 16 -11z"/>
<path d="M860 1783 c-76 -23 -123 -49 -131 -71 -5 -14 -8 -26 -7 -27 2 -2 37
6 78 16 41 11 103 20 137 20 45 1 63 5 67 16 10 26 -5 35 -45 29 -26 -4 -47
-2 -62 8 -12 7 -29 12 -37 9z"/>
</g>
</svg>
