<?xml version="1.0" standalone="no"?>
<!DOCTYPE svg PUBLIC "-//W3C//DTD SVG 20010904//EN"
 "http://www.w3.org/TR/2001/REC-SVG-20010904/DTD/svg10.dtd">
<svg version="1.0" xmlns="http://www.w3.org/2000/svg"
 width="697.000000pt" height="697.000000pt" viewBox="0 0 697.000000 697.000000"
 preserveAspectRatio="xMidYMid meet">
<metadata>
Created by potrace 1.11, written by Peter Selinger 2001-2013
</metadata>
<g transform="translate(0.000000,697.000000) scale(0.100000,-0.100000)"
fill="#000000" stroke="none">
<path d="M3914 6790 c-12 -11 -204 -21 -204 -11 0 10 -75 -2 -150 -24 -119
-34 -180 -32 -180 6 0 14 -4 18 -12 12 -7 -4 -21 -8 -30 -9 -10 -1 -21 -2 -25
-4 -5 -1 -30 -1 -58 1 -27 1 -61 1 -75 1 -77 -3 -138 -1 -160 4 -71 18 -377
23 -412 7 -15 -7 -36 -13 -48 -13 -11 0 -36 -7 -56 -15 -19 -8 -36 -14 -39
-15 -3 0 -21 -9 -41 -20 -19 -11 -39 -18 -45 -15 -5 4 -9 1 -9 -5 0 -6 -4 -8
-10 -5 -5 3 -10 1 -10 -4 0 -6 -9 -11 -20 -11 -11 0 -20 -5 -20 -11 0 -5 -4
-7 -10 -4 -5 3 -10 2 -10 -3 0 -5 -11 -8 -25 -7 -15 2 -25 -2 -25 -9 0 -11
-52 -56 -64 -56 -3 0 -16 -10 -29 -22 -122 -116 -174 -168 -170 -171 2 -3 -10
-16 -26 -30 -16 -13 -27 -28 -24 -31 4 -3 1 -6 -5 -6 -7 0 -12 -7 -12 -15 0
-8 -4 -15 -10 -15 -5 0 -10 -6 -10 -13 0 -7 -8 -22 -17 -33 -31 -34 -125 -216
-165 -318 -28 -73 -78 -287 -78 -338 0 -24 -16 -95 -36 -158 -19 -63 -44 -155
-54 -204 -11 -49 -24 -92 -29 -96 -19 -11 -29 -101 -27 -220 3 -134 21 -291
34 -299 5 -3 8 -16 7 -28 -1 -13 1 -23 5 -23 13 0 2 -140 -11 -157 -10 -12
-11 -15 -1 -9 7 4 2 -12 -10 -36 -12 -23 -23 -47 -24 -53 -1 -5 -11 -59 -22
-120 -20 -116 -18 -219 6 -247 6 -8 10 -18 7 -21 -3 -4 -2 -5 1 -2 4 2 22 -7
40 -22 32 -24 34 -29 34 -84 0 -55 -2 -59 -23 -59 -13 0 -48 12 -78 26 -115
54 -199 99 -199 106 0 5 -6 8 -12 8 -7 0 -25 10 -40 23 -15 12 -49 35 -75 51
-26 16 -61 47 -78 68 -16 21 -38 47 -49 58 -15 16 -18 28 -12 69 6 48 5 51
-33 90 -22 23 -38 35 -35 28 3 -8 -2 -20 -10 -27 -13 -10 -17 -9 -24 9 -7 20
-10 19 -66 -23 -32 -24 -85 -52 -117 -62 -32 -11 -59 -24 -59 -30 0 -6 -7 -17
-15 -24 -8 -7 -12 -16 -9 -21 3 -5 1 -9 -4 -9 -6 0 -19 -16 -31 -36 -12 -19
-25 -33 -30 -30 -8 5 -25 -29 -22 -46 1 -5 -4 -8 -10 -8 -5 0 -7 -4 -4 -10 3
-6 1 -10 -4 -10 -6 0 -11 -5 -11 -11 0 -6 -9 -24 -21 -40 -12 -18 -19 -38 -16
-50 4 -15 2 -19 -9 -15 -8 3 -14 -1 -14 -9 0 -8 -4 -15 -8 -15 -4 0 -9 -16
-10 -36 -3 -33 -24 -79 -103 -219 -16 -27 -37 -66 -46 -85 -10 -19 -33 -56
-51 -82 -17 -26 -32 -51 -32 -56 0 -5 -9 -17 -20 -27 -11 -10 -20 -23 -20 -29
0 -7 -9 -29 -20 -50 -13 -27 -18 -52 -15 -83 6 -57 25 -91 74 -136 23 -20 41
-41 41 -47 0 -5 6 -10 13 -10 8 0 24 -11 37 -25 13 -14 29 -25 37 -25 7 0 13
-4 13 -8 0 -4 24 -23 54 -41 75 -45 92 -65 78 -94 -21 -44 -20 -114 2 -179 18
-50 23 -89 24 -193 8 -446 21 -595 56 -634 9 -10 16 -21 16 -25 0 -9 70 -103
101 -136 25 -26 99 -86 134 -108 39 -24 110 -50 180 -65 28 -6 52 -14 55 -17
10 -11 139 -49 223 -66 83 -16 92 -16 141 -1 29 10 65 17 79 17 24 0 27 -4 27
-32 0 -18 -9 -85 -20 -148 -12 -63 -22 -128 -24 -145 -4 -29 -19 -125 -21
-135 -1 -3 -5 -33 -10 -67 -4 -36 -12 -63 -19 -63 -10 0 -38 -125 -51 -230 -4
-37 -61 -376 -71 -422 l-6 -28 2679 0 2679 0 -1 27 c0 22 7 29 45 42 80 29 85
34 86 93 1 29 -3 58 -8 64 -5 7 -10 27 -12 45 -2 19 -6 41 -9 49 -3 8 -8 29
-11 45 -2 17 -9 51 -14 78 -5 26 -8 47 -5 47 2 0 -1 8 -6 18 -5 9 -12 33 -15
52 -12 73 -17 96 -27 126 -5 17 -12 44 -14 60 -2 16 -8 45 -11 64 -4 19 -7 43
-8 53 0 9 -3 17 -6 17 -4 0 -7 6 -8 13 0 6 -7 39 -15 71 -9 33 -14 68 -12 78
2 10 0 18 -6 18 -5 0 -9 12 -9 26 0 14 -4 33 -9 43 -5 9 -12 35 -15 57 -3 21
-9 54 -15 73 -6 19 -8 38 -5 42 3 5 1 9 -4 9 -8 0 -35 77 -36 105 -1 6 -3 12
-6 15 -7 7 -52 132 -53 148 0 6 -4 12 -8 12 -8 0 -24 41 -20 49 2 2 -2 7 -8
11 -6 3 -13 16 -16 28 -2 11 -13 30 -24 41 -11 11 -25 38 -32 60 -7 23 -15 41
-19 41 -4 0 -13 13 -20 30 -7 16 -23 41 -36 55 -13 15 -21 31 -18 37 4 6 3 8
-3 5 -5 -4 -16 6 -24 21 -8 15 -25 43 -38 62 -12 19 -27 44 -32 55 -5 11 -15
29 -21 39 -46 71 -78 126 -78 135 0 5 -4 11 -8 13 -7 2 -33 42 -105 163 -7 11
-22 34 -34 52 -13 17 -23 35 -23 40 0 4 -11 20 -25 35 -14 15 -25 30 -25 34 0
10 -58 64 -69 64 -5 0 -18 16 -30 35 -12 21 -28 35 -40 35 -11 0 -21 4 -23 8
-5 12 -74 52 -90 52 -7 0 -31 9 -52 20 -21 10 -58 22 -82 26 -25 3 -46 9 -48
13 -2 3 -57 6 -121 5 l-118 0 -12 30 c-7 17 -16 40 -20 51 -4 11 -9 25 -9 31
-1 6 -24 34 -51 61 -44 44 -58 52 -105 59 -30 4 -67 8 -82 9 -15 0 -34 9 -42
20 -9 11 -16 14 -16 8 0 -21 -41 -15 -47 7 -3 11 -6 20 -7 20 0 0 -82 3 -181
6 -99 4 -190 10 -202 15 -25 9 -25 10 -28 112 -2 60 0 67 17 67 10 0 21 -7 24
-15 4 -8 10 -12 15 -9 5 3 12 -2 15 -10 3 -9 12 -16 20 -16 8 0 14 -4 14 -8 0
-15 108 -19 180 -8 44 7 134 59 175 101 11 11 31 36 45 55 13 19 29 38 35 42
5 4 10 11 10 15 1 4 7 19 15 33 8 14 19 34 25 45 6 11 22 21 36 23 21 2 29 -3
39 -27 6 -17 12 -34 12 -38 0 -4 9 -21 20 -36 28 -40 68 -82 68 -72 0 4 8 1
18 -7 14 -13 23 -13 48 -4 41 14 84 47 84 64 0 7 7 15 15 18 8 4 15 11 15 18
0 6 6 23 14 38 8 15 19 51 25 80 6 29 14 64 17 78 3 14 8 55 11 92 4 48 11 72
24 84 11 9 19 27 19 40 0 12 6 25 13 28 10 5 10 7 0 12 -19 8 -16 31 5 43 14
8 17 26 18 107 1 54 -2 105 -6 114 -6 11 -44 128 -55 170 -1 3 -5 13 -9 22 -5
10 -9 29 -10 43 0 14 -4 25 -9 25 -4 0 -6 3 -5 8 0 4 -1 14 -5 22 -10 25 -60
204 -61 220 -1 9 -4 20 -8 25 -3 6 -21 62 -41 125 -27 89 -36 140 -41 225 -6
106 -15 205 -37 383 -5 45 -19 113 -31 150 -11 37 -19 69 -18 71 1 2 -2 7 -7
10 -8 5 -81 130 -92 156 -2 6 -22 34 -43 63 -21 29 -36 58 -32 64 4 6 3 8 -3
5 -11 -7 -39 21 -66 66 -10 15 -26 27 -36 27 -10 0 -38 24 -62 55 -24 30 -45
51 -47 45 -7 -20 -38 -9 -55 19 -10 16 -31 42 -48 58 -18 15 -43 41 -58 57
-62 69 -126 127 -148 132 -13 4 -23 10 -23 15 0 5 -7 9 -15 9 -8 0 -20 9 -27
20 -7 11 -17 20 -21 20 -5 0 -18 11 -29 25 -11 14 -25 25 -33 25 -7 0 -15 6
-18 14 -3 8 -21 17 -39 21 -18 4 -38 15 -45 24 -6 9 -15 16 -20 17 -4 0 -26 8
-48 18 -22 9 -60 20 -85 22 -25 3 -50 7 -56 9 -6 2 -15 0 -20 -5z m-1607
-3293 c17 -9 71 -30 119 -46 86 -28 89 -30 90 -60 1 -17 -3 -31 -7 -31 -4 0
-9 -14 -11 -32 -3 -30 -6 -33 -38 -34 -19 0 -40 3 -47 8 -6 5 -14 5 -17 0 -7
-12 -161 -5 -196 8 -6 3 -11 2 -46 -6 -16 -3 -56 -6 -89 -5 -33 0 -73 -5 -88
-11 -15 -6 -30 -8 -33 -6 -5 5 25 68 37 78 4 3 16 24 27 47 22 43 25 44 118
58 27 4 51 16 69 35 29 30 47 30 112 -3z"/>
</g>
</svg>
