<?xml version="1.0" encoding="utf-8"?>
<!-- Generator: Adobe Illustrator 22.0.1, SVG Export Plug-In . SVG Version: 6.00 Build 0)  -->
<svg version="1.1" id="Layer_1" xmlns="http://www.w3.org/2000/svg" xmlns:xlink="http://www.w3.org/1999/xlink" x="0px" y="0px"
	 viewBox="0 0 365.3 78" style="enable-background:new 0 0 365.3 78;" xml:space="preserve">
<style type="text/css">
	.st0{fill:#CEA844;}
	.st1{fill:#A2C7BD;}
	.st2{fill:#F8D22B;}
	.st3{fill:#249EA2;}
	.st4{fill:#E7D990;}
	.st5{fill:#E26C78;}
	.st6{fill:#65A8AC;}
	.st7{fill:#246068;}
	.st8{fill:#5FB2AC;}
	.st9{fill:#E6D2C8;}
	.st10{fill:#2E686F;}
	.st11{fill:#D8B757;}
	.st12{fill:#2CB5B0;}
	.st13{fill:#F2806D;}
	.st14{fill:#E6D4C4;}
	.st15{fill:#29ABAB;}
	.st16{fill:#FA8777;}
	.st17{fill:#B6CEC5;}
	.st18{fill:#D395A0;}
	.st19{fill:#A86264;}
	.st20{fill:#2C7B80;}
</style>
<g>
	<path class="st0" d="M54.3,50.7c-0.1-5.6-1.7-10-4.2-13.9l-4.9,2.2L54.3,50.7z"/>
	<path class="st1" d="M38.2,62.6l12-3.4l0,0l3.1-0.9c0.7-2.3,1-4.8,1-7.3c0-0.1,0-0.2,0-0.3l-9.1-11.8l-7.4,23.5L38.2,62.6z"/>
	<polygon class="st1" points="38.1,62.8 38.1,62.8 38.2,62.6 	"/>
	<polygon class="st2" points="37.9,62.4 45.3,38.9 15.4,52.4 	"/>
	<polygon class="st3" points="15.4,52.4 25.5,65.4 38.2,62.6 37.9,62.4 	"/>
	<path class="st4" d="M25.5,65.4L25.5,65.4l-12.7,2.8l6.7,8.6c2.5,0.7,5.1,1.1,7.8,1.1c1.8,0,3.6-0.2,5.3-0.5l5.6-14.6l0.1-0.3
		L25.5,65.4z"/>
	<path class="st5" d="M38.2,62.6l-0.1,0.3l-5.6,14.6c4.7-0.9,9-3.1,12.5-6.1L38.2,62.6z"/>
	<path class="st6" d="M49.1,59.5l1.1-0.3l0,0l0,0l-12,3.4l6.8,8.8c1.4-1.2,2.7-2.6,3.8-4.1L49.1,59.5z"/>
	<path class="st7" d="M49.1,59.5l-0.3,7.7c2-2.6,3.6-5.7,4.5-9l-3.1,0.9L49.1,59.5z"/>
	<path class="st8" d="M50.2,36.8c-2.1-3.3-4.8-6.2-7.5-9l2.6,11.2L50.2,36.8z"/>
	<path class="st5" d="M15.4,52.4l29.8-13.5l-2.6-11.2c-0.1-0.1-0.2-0.2-0.2-0.2L31.3,37.8L15.4,52.4z"/>
	<path class="st9" d="M12.8,68.3l12.8-2.8l0,0l-10-13L6.2,68.1C6.5,68.6,7,69,7.4,69.4L12.8,68.3L12.8,68.3z"/>
	<path class="st10" d="M0.1,53.7c0.6,5.4,2.7,10.4,6,14.4l9.3-15.7L0.1,53.7z"/>
	<path class="st11" d="M31.3,37.8l11.1-10.3c-0.1-0.1-0.2-0.2-0.3-0.3l-22.8-7.5c-0.3,0.3-0.5,0.6-0.8,0.9L31.3,37.8z"/>
	<path class="st12" d="M12.8,68.3l-5.4,1.2c3.2,3.4,7.4,6.1,12,7.4L12.8,68.3L12.8,68.3z"/>
	<path class="st13" d="M16.2,38.8l-0.7,13.6l15.8-14.7L18.5,20.7c-0.4,0.5-0.9,1-1.4,1.5l-0.8,14.2L16.2,38.8z"/>
	<path class="st14" d="M29.8,11.9l-8.1,4.6c-0.8,1.1-1.6,2.2-2.5,3.2l22.8,7.5C37.5,22.5,32.7,18,29.8,11.9z"/>
	<path class="st15" d="M16.2,38.8L1.7,41.6c-0.6,1.4-1,2.9-1.3,4.5l15,6.2L16.2,38.8z"/>
	<path class="st16" d="M0.4,46.2C0.2,47.7,0,49.3,0,51c0,0.9,0,1.9,0.1,2.8l15.3-1.3L0.4,46.2z"/>
	<path class="st17" d="M16.2,38.8l0.1-2.4l-9.1-3.8c-2.3,2.7-4.2,5.6-5.5,9L16.2,38.8z"/>
	<path class="st18" d="M16.3,36.4l0.8-14.2c-3.3,3.5-6.8,6.8-9.9,10.5L16.3,36.4z"/>
	<path class="st19" d="M27.2,0c0,6.8-2.2,12-5.4,16.5l8.1-4.6C28.2,8.5,27.2,4.6,27.2,0z"/>
</g>
<g>
	<path class="st15" d="M75.8,44.8V20.1h9.7c7.7,0,13.1,4.9,13.1,12.4c0,7.4-5.4,12.3-13.1,12.3H75.8z M93.3,32.4
		c0-4.4-2.7-7.7-7.7-7.7h-4.5v15.4h4.5C90.5,40.1,93.3,36.6,93.3,32.4z"/>
	<path class="st15" d="M101.9,44.8V20.1h17.5v4.6h-12.2v5.2h12v4.6h-12v5.6h12.2v4.6H101.9z"/>
	<path class="st15" d="M121.6,41.3l2.9-4c1.7,1.8,4.4,3.3,7.8,3.3c2.9,0,4.3-1.3,4.3-2.7c0-4.4-14.2-1.4-14.2-10.7
		c0-4.1,3.6-7.5,9.4-7.5c3.9,0,7.2,1.2,9.6,3.4l-2.9,3.9c-2-1.9-4.7-2.7-7.2-2.7c-2.3,0-3.5,1-3.5,2.5c0,3.9,14.2,1.3,14.2,10.5
		c0,4.5-3.2,7.9-9.9,7.9C127.3,45.2,123.9,43.6,121.6,41.3z"/>
	<path class="st15" d="M145.2,44.8V20.1h5.3v24.7H145.2z"/>
	<path class="st15" d="M153.7,32.4c0-7.8,5.9-12.8,13.1-12.8c5.1,0,8.4,2.6,10.2,5.5l-4.4,2.4c-1.1-1.7-3.2-3.2-5.8-3.2
		c-4.5,0-7.7,3.4-7.7,8.1s3.3,8.1,7.7,8.1c2.2,0,4.3-1,5.3-1.9v-3h-6.5v-4.6h11.8v9.5c-2.5,2.8-6,4.7-10.5,4.7
		C159.6,45.3,153.7,40.2,153.7,32.4z"/>
	<path class="st15" d="M198.4,44.8l-11.8-16.1v16.1h-5.3V20.1h5.4l11.4,15.5V20.1h5.3v24.7H198.4z"/>
	<path class="st15" d="M229.3,44.8V20.1h9.7c7.7,0,13.1,4.9,13.1,12.4c0,7.4-5.4,12.3-13.1,12.3H229.3z M246.8,32.4
		c0-4.4-2.7-7.7-7.7-7.7h-4.5v15.4h4.5C244,40.1,246.8,36.6,246.8,32.4z"/>
	<path class="st15" d="M269.4,44.8l-4.8-8.8h-3.8v8.8h-5.3V20.1H267c5.1,0,8.3,3.4,8.3,8c0,4.4-2.7,6.7-5.4,7.3l5.6,9.4H269.4z
		 M269.9,28c0-2.1-1.6-3.3-3.7-3.3h-5.5v6.7h5.5C268.3,31.4,269.9,30.1,269.9,28z"/>
	<path class="st15" d="M278.5,34.9V20.1h5.3v14.7c0,3.4,2,5.8,5.8,5.8c3.8,0,5.8-2.4,5.8-5.8V20.1h5.4v14.8
		c0,6.1-3.6,10.3-11.1,10.3C282.1,45.2,278.5,41,278.5,34.9z"/>
	<path class="st15" d="M305.2,44.8V20.1h11.5c5.4,0,8.3,3.6,8.3,8c0,4.3-3,8-8.3,8h-6.3v8.8H305.2z M319.7,28c0-2.1-1.6-3.3-3.6-3.3
		h-5.6v6.7h5.6C318.2,31.4,319.7,30.1,319.7,28z"/>
	<path class="st15" d="M341.8,44.8l-1.5-4.2h-10.6l-1.6,4.2h-6l9.6-24.7h6.6l9.5,24.7H341.8z M335,25.3L331.2,36h7.7L335,25.3z"/>
	<path class="st15" d="M349.7,44.8V20.1h5.3v20.1h10.4v4.6H349.7z"/>
</g>
<path class="st20" d="M217.9,44.8v-5.1h-11.8v-4.1l9.8-15.4h7.3v15h3.2v4.6h-3.2v5.1H217.9z M217.9,24.7L211.2,35h6.7V24.7z"/>
<g>
	<path class="st20" d="M76.4,52.9h10.4c3.8,0,5.7,2.4,5.7,5.1c0,2.5-1.5,4.2-3.4,4.5c2.1,0.3,3.8,2.4,3.8,4.9c0,3-2,5.3-5.8,5.3
		H76.4V52.9z M85.9,60.8c1.4,0,2.3-0.9,2.3-2.2c0-1.2-0.9-2.2-2.3-2.2h-5.3v4.4H85.9z M86.1,69.1c1.6,0,2.6-0.9,2.6-2.3
		c0-1.2-0.9-2.3-2.6-2.3h-5.4v4.7H86.1z"/>
	<path class="st20" d="M105.5,52.5c6,0,10.4,4.3,10.4,10.2S111.5,73,105.5,73c-6,0-10.3-4.3-10.3-10.2S99.6,52.5,105.5,52.5z
		 M105.5,56.3c-3.7,0-6,2.8-6,6.5c0,3.7,2.3,6.5,6,6.5s6-2.8,6-6.5C111.6,59.1,109.2,56.3,105.5,56.3z"/>
	<path class="st20" d="M119.8,66.7c1.4,1.5,3.6,2.7,6.3,2.7c2.3,0,3.4-1.1,3.4-2.2c0-1.5-1.7-2-4-2.5c-3.2-0.7-7.4-1.6-7.4-6.1
		c0-3.3,2.9-6,7.5-6c3.1,0,5.8,1,7.7,2.8l-2.3,3.1c-1.6-1.5-3.7-2.2-5.7-2.2c-1.9,0-2.9,0.8-2.9,2c0,1.3,1.7,1.8,4,2.3
		c3.3,0.7,7.4,1.7,7.4,6.1c0,3.6-2.6,6.4-7.9,6.4c-3.8,0-6.5-1.3-8.4-3.1L119.8,66.7z"/>
	<path class="st20" d="M141.1,56.6h-5.8v-3.7h15.8v3.7h-5.8v16.1h-4.2V56.6z"/>
	<path class="st20" d="M162.4,52.5c6,0,10.4,4.3,10.4,10.2S168.4,73,162.4,73c-6,0-10.3-4.3-10.3-10.2S156.5,52.5,162.4,52.5z
		 M162.4,56.3c-3.7,0-6,2.8-6,6.5c0,3.7,2.3,6.5,6,6.5c3.7,0,6-2.8,6-6.5C168.5,59.1,166.1,56.3,162.4,56.3z"/>
	<path class="st20" d="M180,59.4v13.3h-4.2V52.9h4.3l9.2,12.8V52.9h4.2v19.8h-4.1L180,59.4z"/>
</g>
<g>
	<path class="st15" d="M201.9,72.3v-3.2c7.9-5.8,10.2-7.8,10.2-10.2c0-1.7-1.5-2.5-3.1-2.5c-2.2,0-3.9,0.9-5.2,2.2l-2.3-2.7
		c1.9-2.2,4.7-3.1,7.4-3.1c4.1,0,7.4,2.3,7.4,6.1c0,3.3-2.7,6.1-7.7,9.8h7.8v3.6H201.9z"/>
	<path class="st15" d="M218.8,62.7c0-5,2.5-9.9,8-9.9c5.5,0,8,5,8,9.9c0,5-2.5,10-8,10C221.3,72.7,218.8,67.7,218.8,62.7z
		 M230.5,62.7c0-3.5-1-6.3-3.8-6.3c-2.7,0-3.8,2.7-3.8,6.3c0,3.5,1,6.3,3.8,6.3C229.5,69,230.5,66.3,230.5,62.7z"/>
	<path class="st15" d="M241.6,72.3v-14l-3.2,3.3l-2.3-2.5l6.1-6.1h3.6v19.2H241.6z"/>
	<path class="st15" d="M249.9,67.3c0-2.3,1.8-4.1,4.1-4.9c-2.1-0.8-3.8-2.1-3.8-4.5c0-3.6,3.8-5.1,7.4-5.1c3.5,0,7.4,1.4,7.4,5.1
		c0,2.4-1.7,3.8-3.8,4.5c2.3,0.8,4.1,2.6,4.1,4.9c0,3.6-3.7,5.3-7.7,5.3S249.9,70.9,249.9,67.3z M261.2,66.8c0-1.6-2.4-2.3-3.6-2.5
		c-1.2,0.2-3.6,0.9-3.6,2.5c0,1.4,1.6,2.3,3.6,2.3C259.6,69,261.2,68.1,261.2,66.8z M260.8,58.6c0-1.4-1.4-2.1-3.2-2.1
		c-1.9,0-3.3,0.8-3.3,2.1c0,1.4,2.1,2,3.3,2.2C258.8,60.6,260.8,60,260.8,58.6z"/>
</g>
</svg>
